<svg width="120" height="155" viewBox="0 0 120 155" fill="none" xmlns="http://www.w3.org/2000/svg">
<rect width="120" height="155" fill="url(#paint0_linear_148_6504)"/>
<path d="M42.3206 141.176L54.394 133.34C54.4194 133.324 54.441 133.302 54.4575 133.277C54.474 133.251 54.4849 133.222 54.4896 133.192C54.4943 133.162 54.4926 133.131 54.4846 133.102C54.4767 133.073 54.4626 133.045 54.4434 133.022L39.1072 114.336C39.0819 114.305 39.0483 114.282 39.0103 114.269C38.9723 114.256 38.9314 114.254 38.8925 114.264C38.8535 114.273 38.818 114.294 38.7901 114.323C38.7622 114.351 38.743 114.388 38.7347 114.427L36.2897 125.803C36.2882 125.813 36.2882 125.823 36.2897 125.832L35.7075 133.639C35.705 133.666 35.7081 133.695 35.7166 133.721C35.7251 133.748 35.7389 133.772 35.7571 133.794L42.0469 141.144C42.0816 141.18 42.128 141.204 42.178 141.21C42.228 141.215 42.2784 141.203 42.3206 141.176Z" fill="#150035"/>
<path d="M42.5301 142.027C42.3592 142.028 42.1902 141.992 42.0351 141.922C41.88 141.853 41.7425 141.751 41.6323 141.624L34.9169 134.058L34.8899 133.527L35.4884 125.775L38.0262 114.342C38.072 114.132 38.1778 113.94 38.3314 113.786C38.4851 113.633 38.6803 113.524 38.8948 113.474C39.1092 113.423 39.3341 113.431 39.5436 113.499C39.7531 113.566 39.9388 113.69 40.0792 113.855L56.1257 132.719L56.1078 133.298C56.0833 133.458 56.0235 133.611 55.9326 133.747C55.8417 133.882 55.7219 133.997 55.5811 134.084L43.1586 141.859C42.97 141.972 42.7519 142.031 42.5301 142.027ZM36.8201 133.359L42.6708 139.966L53.8483 132.968L39.5764 116.188L37.3828 126.025L36.8201 133.359Z" fill="#150035"/>
<path d="M88.5731 84.5695L30.5748 51.3207C29.1101 50.4889 27.8037 50.3609 26.7873 50.7914L15.4454 57.5389C15.4044 57.5619 15.3692 57.5938 15.3424 57.6323C15.3157 57.6708 15.2981 57.7149 15.2911 57.7611C15.284 57.8073 15.2877 57.8546 15.3017 57.8992C15.3158 57.9438 15.3399 57.9847 15.3722 58.0187L28.9256 72.2495C28.9806 72.3067 29.0109 72.3828 29.0105 72.4618V95.9704C29.0105 99.7164 31.6849 104.315 34.951 106.188L43.6009 111.155C43.8118 111.446 43.9935 111.708 44.2073 112.001C44.6379 114.485 47.0252 124.865 57.6523 132.069C58.0683 132.36 58.3466 131.941 58.0713 131.424C56.677 128.806 54.0465 123.062 54.8491 118.56L55.804 118.15L73.6986 128.408C73.7605 128.444 73.808 128.501 73.8333 128.568L81.3028 148.362C81.3192 148.404 81.3445 148.442 81.3769 148.473C81.4092 148.504 81.4478 148.528 81.4903 148.543C81.5327 148.558 81.578 148.564 81.6229 148.561C81.6679 148.557 81.7115 148.544 81.751 148.522L92.9728 141.815C93.9248 141.179 94.5135 139.945 94.5135 138.209V94.7867C94.5135 91.0407 91.8392 86.4338 88.5731 84.5695Z" fill="white"/>
<path d="M81.514 149.378C81.3726 149.379 81.2322 149.354 81.0993 149.306C80.9289 149.246 80.7738 149.15 80.645 149.024C80.5163 148.898 80.4171 148.746 80.3546 148.577L72.9865 129.029L55.7564 119.137L55.7126 119.158C55.2161 123.384 57.7568 128.736 58.9016 130.916C59.2521 131.574 59.1703 132.297 58.7001 132.715C58.483 132.899 58.209 133.004 57.9237 133.012C57.6384 133.02 57.359 132.93 57.1318 132.759C46.6185 125.627 43.9698 115.579 43.3682 112.334L43.0031 111.823L34.5603 106.976C31.0354 104.944 28.1706 100.01 28.1706 95.9754V72.7554L14.8099 58.7393C14.6804 58.6029 14.5839 58.439 14.5276 58.2601C14.4713 58.0812 14.4566 57.8918 14.4848 57.7064C14.5129 57.5211 14.583 57.3445 14.69 57.19C14.7969 57.0356 14.9378 56.9073 15.1019 56.8149L26.395 50.0927C27.8376 49.4658 29.4789 49.6719 31.1143 50.6123L88.9376 83.7936C92.4625 85.8253 95.3303 90.7596 95.3303 94.794V138.122C95.3303 140.099 94.6382 141.649 93.3824 142.476L82.1536 149.193C81.9605 149.309 81.7399 149.373 81.514 149.378ZM55.8674 117.065L74.1138 127.534C74.3691 127.681 74.5629 127.914 74.6599 128.19L81.8382 147.228L92.3836 140.923C93.067 140.462 93.4671 139.472 93.4671 138.12V94.794C93.4671 91.3981 90.9672 87.0966 88.0089 85.4016L30.1856 52.2086C29.07 51.5672 28.0246 51.3959 27.2448 51.7297L16.7081 58.0136L29.6862 71.6554C29.9059 71.8858 30.0282 72.1913 30.028 72.5087V95.9667C30.028 99.3626 32.5248 103.664 35.4832 105.359L44.3991 110.584L45.1642 111.811C45.4883 113.686 47.5005 122.879 56.2616 129.836C54.8014 126.643 53.2448 122.153 53.9253 118.351L54.0129 117.857L55.8674 117.065Z" fill="#150035"/>
<path d="M77.3187 91.3896L19.4142 57.8724C16.2323 56.0324 13.6541 57.5243 13.6541 61.2101V105.042C13.6541 108.724 16.2323 113.206 19.4142 115.046L28.3212 120.206C28.4384 120.283 28.5388 120.384 28.616 120.502C28.6932 120.62 28.7457 120.752 28.7704 120.89C29.1583 123.231 31.4682 133.829 42.1718 141.156C42.586 141.449 42.863 141.031 42.5889 140.51C41.151 137.769 38.3949 131.693 39.4769 127.098C39.5294 126.881 39.7336 126.805 39.9552 126.943L77.3187 148.589C80.4977 150.432 83.0789 148.937 83.0789 145.255V101.394C83.0789 97.711 80.4977 93.2324 77.3187 91.3896Z" fill="#E33569"/>
<path d="M79.7851 150.195C78.7134 150.161 77.6692 149.846 76.7561 149.282L40.256 128.131C39.7414 132.376 42.2589 137.758 43.4275 139.993C43.7763 140.655 43.6949 141.381 43.224 141.802C43.0084 141.988 42.7355 142.094 42.4513 142.102C42.167 142.11 41.8886 142.019 41.663 141.845C30.6165 134.26 28.2734 123.174 27.9129 121.015L19.0408 115.84C15.5525 113.824 12.8373 109.086 12.8373 105.045V61.3195C12.8373 59.1928 13.599 57.5824 14.9827 56.7801C16.3664 55.9778 18.1367 56.1208 19.9711 57.1856L77.6921 90.6247C81.1805 92.6406 83.8956 97.3785 83.8956 101.419V145.151C83.8956 147.275 83.134 148.885 81.7502 149.687C81.1517 150.029 80.4734 150.204 79.7851 150.195ZM39.7647 125.893C40.003 125.894 40.2367 125.958 40.4421 126.08L77.6863 147.668C78.9188 148.38 80.0264 148.526 80.8142 148.071C81.602 147.616 82.0322 146.58 82.0322 145.154V101.41C82.0322 98.0991 79.6165 93.898 76.7561 92.241L19.0408 58.7989C17.8083 58.0842 16.692 57.9441 15.9129 58.3963C15.1338 58.8485 14.6949 59.8871 14.6949 61.3137V105.048C14.6949 108.362 17.1106 112.561 19.9711 114.221L28.8548 119.364C29.0912 119.51 29.2936 119.705 29.4486 119.936C29.6035 120.167 29.7074 120.428 29.7531 120.703C30.07 122.593 32.0234 131.862 40.8286 138.899C39.2938 135.538 37.6833 130.753 38.6077 126.832C38.665 126.566 38.8118 126.327 39.0234 126.156C39.2351 125.985 39.4988 125.892 39.7705 125.893H39.7647Z" fill="#150035"/>
<path d="M89.3648 85.3424L79.2916 91.4673L80.2584 93.0575L90.3317 86.9326L89.3648 85.3424Z" fill="#150035"/>
<path d="M31.5188 53.4271L21.4981 59.5576L22.4658 61.1395L32.4865 55.009L31.5188 53.4271Z" fill="#150035"/>
<path d="M93.5052 96.2775L82.4042 103.309L83.4 104.881L94.501 97.8497L93.5052 96.2775Z" fill="#150035"/>
<path d="M94.5135 102.823L83.0789 109.793V147.745L94.1449 141.642L94.5135 138.924V102.823Z" fill="#150035"/>
<path d="M30.0629 24.0002L29.0515 36.6431L30.9125 36.7919L31.9239 24.1491L30.0629 24.0002Z" fill="#150035"/>
<path d="M18.0915 27.1657L16.3873 27.9131L22.2356 41.2491L23.9399 40.5017L18.0915 27.1657Z" fill="#150035"/>
<path d="M5.58525 38.5472L4.66969 40.1675L15.2301 46.1352L16.1456 44.5149L5.58525 38.5472Z" fill="#150035"/>
<path d="M52.3837 124.059C51.6976 124.059 50.904 123.793 49.9795 123.257C48.6934 122.533 47.6059 121.501 46.8138 120.254C46.0504 119.042 45.6471 117.637 45.651 116.203C45.651 114.64 46.087 113.631 46.9446 113.2C47.8022 112.768 48.9301 112.99 50.4331 113.859C51.7202 114.578 52.8014 115.617 53.5727 116.877C54.3017 118.088 54.683 119.477 54.6744 120.892C54.6744 122.443 54.2238 123.441 53.3314 123.855C53.0341 123.991 52.7106 124.061 52.3837 124.059ZM47.8952 113.923C47.7135 113.917 47.5331 113.955 47.369 114.034C46.8516 114.293 46.59 115.022 46.59 116.203C46.5833 117.46 46.9343 118.694 47.6016 119.758C48.3119 120.878 49.289 121.803 50.4447 122.449C51.5377 123.088 52.3866 123.274 52.9506 123.009C53.5146 122.744 53.7559 122.047 53.7559 120.892C53.7632 119.647 53.4282 118.424 52.7878 117.358C52.0963 116.234 51.1295 115.307 49.9795 114.664C49.1423 114.171 48.4214 113.923 47.8952 113.923ZM53.3692 113.083L46.494 109.1V106.901C46.494 105.321 46.7847 104.163 47.3661 103.364C47.9475 102.565 48.9882 102.032 50.4272 101.819C51.3895 101.673 52.0755 101.449 52.4622 101.151C52.8023 100.895 52.968 100.457 52.968 99.8127C52.937 99.211 52.7115 98.6357 52.3255 98.174C51.8405 97.5472 51.2357 97.0238 50.5465 96.6344C48.6831 95.5584 46.4591 95.0568 43.9562 95.1385H43.6161L40.6072 86.5831L41.209 86.5335C44.5201 86.2653 47.9883 87.178 51.5523 89.2454C54.3072 90.781 56.6787 92.9235 58.4885 95.5117C60.1716 97.9932 61.0263 100.577 61.0263 103.189C61.0263 105.099 60.6222 106.566 59.8286 107.563C59.035 108.561 57.753 109.19 56.0495 109.465C54.3866 109.756 53.875 110.001 53.7238 110.124C53.5 110.304 53.3867 110.643 53.3867 111.135L53.3692 113.083ZM47.4214 108.558L52.439 111.474V111.138C52.439 110.348 52.6715 109.762 53.1279 109.389C53.3895 109.182 53.9593 108.867 55.8867 108.537C57.3693 108.301 58.4478 107.776 59.099 106.968C59.7501 106.161 60.0902 104.889 60.0902 103.198C60.0902 100.778 59.2908 98.3693 57.7123 96.0424C56.1338 93.7155 53.8866 91.6831 51.0842 90.0589C47.9039 88.219 44.8021 87.3296 41.8864 87.4346L44.2614 94.1937C46.8138 94.1762 49.0725 94.704 51.0057 95.8237C51.8024 96.2742 52.5012 96.88 53.061 97.6054C53.5714 98.2279 53.8636 99.0015 53.8925 99.8069C53.8925 100.749 53.6018 101.449 53.0204 101.889C52.4971 102.288 51.6889 102.565 50.5552 102.735C49.3691 102.909 48.5464 103.318 48.1103 103.901C47.6743 104.484 47.4243 105.534 47.4243 106.89L47.4214 108.558Z" fill="white"/>
<path d="M43.7157 105.98V104.043C43.7157 102.58 43.9674 101.48 44.4706 100.769C44.9739 100.058 45.8645 99.5981 47.1454 99.405C48.1633 99.2469 48.8956 98.9953 49.3395 98.6441C49.7834 98.293 50.0096 97.7253 50.0096 96.9293C49.9836 96.2232 49.732 95.546 49.2943 95.0038C48.7863 94.3242 48.1517 93.757 47.4281 93.3358C45.53 92.2024 43.3133 91.6815 40.778 91.7732L38.157 84.0829C41.2879 83.8195 44.5545 84.7052 47.9569 86.7399C50.756 88.4138 52.9539 90.4622 54.5505 92.8852C56.147 95.3081 56.9444 97.7887 56.9425 100.327C56.9425 102.141 56.5881 103.501 55.8794 104.406C55.1706 105.311 54.0396 105.896 52.4864 106.162C51.166 106.393 50.3404 106.648 50.0096 106.92C49.6788 107.192 49.5091 107.654 49.5091 108.301V109.448L43.7157 105.98ZM42.9071 113.378C42.9071 111.997 43.2426 111.132 43.9136 110.782C44.5847 110.433 45.5743 110.649 46.8824 111.429C48.0678 112.112 49.0638 113.098 49.7749 114.294C50.4408 115.437 50.7891 116.749 50.7815 118.084C50.7815 119.449 50.4328 120.299 49.7354 120.632C49.0398 120.969 48.0869 120.773 46.8824 120.047C45.6947 119.36 44.691 118.377 43.9617 117.188C43.2653 116.049 42.8993 114.726 42.9071 113.378Z" fill="#150035"/>
<defs>
<linearGradient id="paint0_linear_148_6504" x1="130.5" y1="-1.27333e-07" x2="-69" y2="155" gradientUnits="userSpaceOnUse">
<stop stop-color="#B4B3FF" stop-opacity="0.49"/>
<stop offset="0.355149" stop-color="#B4B3FF" stop-opacity="0"/>
</linearGradient>
</defs>
</svg>
