<svg width="817" height="849" viewBox="0 0 817 849" fill="none" xmlns="http://www.w3.org/2000/svg">
<rect width="860" height="926" fill="url(#paint0_linear_130_3669)" fill-opacity="0.15"/>
<path d="M581.369 464.091L532.245 464.164C531.977 464.164 531.721 464.27 531.531 464.46C531.342 464.649 531.235 464.906 531.235 465.174V480.334C531.345 481.832 532.464 483.385 534.59 484.614L549.373 493.149C553.468 495.512 559.658 495.771 563.202 493.722L579.973 484.038C581.676 483.057 582.434 481.719 582.335 480.334V465.101C582.336 464.84 582.235 464.59 582.055 464.402C581.875 464.214 581.629 464.102 581.369 464.091Z" fill="#BC365E"/>
<path d="M557.216 496.624C554.222 496.646 551.272 495.9 548.648 494.458L533.864 485.923C531.939 484.829 530.63 483.4 530.061 481.851H529.755L529.737 480.338L529.719 465.178C529.719 464.507 529.985 463.865 530.459 463.391C530.933 462.917 531.575 462.651 532.245 462.651L581.362 462.574C582.031 462.575 582.673 462.842 583.146 463.316C583.619 463.789 583.885 464.431 583.885 465.101V481.847H583.706C583.316 483.229 582.299 484.457 580.753 485.347L563.982 495.031C562.148 496.099 559.731 496.624 557.216 496.624ZM532.767 480.104V480.224C532.84 481.271 533.791 482.39 535.366 483.302L550.15 491.837C553.759 493.919 559.4 494.181 562.466 492.409L579.236 482.729C580.009 482.281 580.921 481.522 580.841 480.443L580.724 478.817H580.852V465.608L532.727 465.681L532.767 480.104Z" fill="#150035"/>
<path d="M581.369 464.135L558.765 464.168V495.06C560.33 494.947 561.854 494.507 563.239 493.769L580.009 484.085C581.712 483.101 582.47 481.763 582.372 480.378V465.145C582.371 464.878 582.265 464.623 582.078 464.434C581.89 464.245 581.636 464.138 581.369 464.135Z" fill="#150035"/>
<path d="M580.006 467.872L563.235 477.556C559.691 479.601 553.501 479.346 549.406 476.979L534.622 468.444C530.528 466.082 530.083 462.505 533.631 460.46L550.402 450.776C553.949 448.731 560.14 448.986 564.234 451.352L579.018 459.887C583.108 462.25 583.553 465.826 580.006 467.872Z" fill="white"/>
<path d="M557.216 480.454C554.222 480.477 551.272 479.733 548.648 478.292L533.864 469.757C531.232 468.236 529.719 466.111 529.719 463.923C529.719 462.016 530.842 460.317 532.872 459.143L549.643 449.463C553.654 447.134 560.413 447.385 564.992 450.036L579.776 458.571C582.408 460.091 583.918 462.217 583.918 464.405C583.918 466.315 582.798 468.01 580.768 469.181L563.997 478.868C562.148 479.933 559.731 480.454 557.216 480.454ZM556.392 450.922C554.405 450.922 552.523 451.286 551.156 452.099L534.385 461.776C533.656 462.21 532.748 462.935 532.748 463.934C532.748 464.992 533.733 466.191 535.381 467.139L550.165 475.678C553.774 477.756 559.414 478.022 562.48 476.25L579.251 466.567C579.98 466.136 580.884 465.411 580.884 464.412C580.884 463.355 579.904 462.155 578.256 461.203L563.472 452.679C561.299 451.503 558.863 450.896 556.392 450.915V450.922Z" fill="#150035"/>
<path d="M552.509 477.767H549.475V493.86H552.509V477.767Z" fill="#150035"/>
<path d="M577.796 473.687H575.467V481.588H577.796V473.687Z" fill="#BC365E"/>
<path d="M553.77 532.489L547.715 528.992L548.878 526.972L554.933 530.469L553.77 532.489ZM560.993 529.984L559.826 527.968L565.882 524.471L567.048 526.487L560.993 529.984ZM541.67 525.496L535.618 521.999L536.781 519.979L542.836 523.476L541.67 525.496ZM573.119 522.991L571.952 520.975L578.008 517.474L579.175 519.494L573.119 522.991ZM534.163 518.499L533 516.483L539.056 512.986L540.222 515.002L534.163 518.499ZM575.39 517.981L569.334 514.485L570.501 512.469L576.557 515.965L575.39 517.981ZM546.275 511.506L545.111 509.49L551.167 505.993L552.334 508.01L546.275 511.506ZM563.279 510.988L557.223 507.492L558.39 505.476L564.445 508.972L563.279 510.988Z" fill="#9EDDFB"/>
<path d="M704.803 508.028L703.64 506.008L709.703 502.526L710.866 504.546L704.803 508.028ZM716.929 501.064L715.769 499.044L721.836 495.562L722.995 497.582L716.929 501.064ZM729.058 494.1L727.899 492.08L733.962 488.598L735.125 490.618L729.058 494.1ZM741.177 487.136L740.018 485.113L746.084 481.631L747.244 483.651L741.177 487.136ZM753.307 480.173L752.147 478.149L758.21 474.671L759.373 476.691L753.307 480.173ZM765.436 473.209L764.277 471.185L770.344 467.707L771.503 469.727L765.436 473.209ZM774.106 462.891H771.802V455.89H774.135L774.106 462.891ZM774.106 448.905H771.802V441.912H774.135L774.106 448.905ZM774.106 434.919H771.802V427.926H774.135L774.106 434.919ZM774.106 420.933H771.802V413.94H774.135L774.106 420.933Z" fill="#9EDDFB"/>
<path d="M485.053 724.566L529.591 720.902L536.109 725.317C545.851 726.112 555.206 728.576 562.647 732.696C565.084 734.031 567.373 735.62 569.476 737.436L577.475 736.003C577.478 736.003 577.481 736.003 577.485 736.004C577.488 736.005 577.49 736.006 577.493 736.008C577.495 736.01 577.497 736.013 577.499 736.016C577.5 736.019 577.501 736.022 577.501 736.025L577.526 752.877H577.504C577.504 760.016 572.797 767.158 563.373 772.62C544.473 783.558 513.79 783.616 494.871 772.722C492.835 771.56 490.907 770.218 489.111 768.711L489.085 751.881C489.085 751.876 489.087 751.871 489.091 751.867C489.094 751.863 489.099 751.86 489.104 751.86L510.279 748.064C510.283 748.062 510.288 748.059 510.29 748.055C510.293 748.05 510.295 748.046 510.295 748.04C510.295 748.035 510.293 748.03 510.29 748.026C510.288 748.022 510.283 748.019 510.279 748.017L485.031 741.454C485.028 741.447 485.028 741.439 485.031 741.432L485.006 724.61C485 724.603 484.997 724.595 484.997 724.586C484.998 724.578 485.001 724.57 485.008 724.564C485.014 724.558 485.022 724.555 485.031 724.555C485.039 724.556 485.047 724.56 485.053 724.566Z" fill="#BC365E"/>
<path d="M577.92 735.763C577.92 735.756 577.917 735.749 577.912 735.745C577.908 735.74 577.901 735.737 577.894 735.737L569.895 737.174H569.877C567.773 735.359 565.485 733.77 563.048 732.434C558.251 729.776 552.647 727.818 546.668 726.542V778.749C552.906 777.378 558.772 775.263 563.803 772.354C573.228 766.885 577.923 759.753 577.934 752.614H577.956L577.92 735.763Z" fill="#150035"/>
<path d="M578.78 752.884L578.758 753.613H578.74C578.416 761.241 573.213 768.336 564.022 773.666C544.819 784.79 513.545 784.837 494.31 773.772C492.17 772.542 490.147 771.121 488.265 769.524L487.937 769.16L487.908 750.824L504.788 747.802L484.663 742.551L483.846 742.242L483.821 724.621L483.799 723.527L529.452 719.684L529.915 719.637L536.543 724.132C546.722 724.996 555.957 727.588 563.26 731.628C565.598 732.915 567.806 734.427 569.852 736.142L577.242 734.818L577.81 734.691L578.755 735.42L578.78 752.884ZM486.242 725.682L486.264 740.491L510.643 746.846L511.577 747.124L511.489 749.074L490.343 752.848V768.139C491.968 769.461 493.697 770.65 495.513 771.694C514.081 782.376 544.269 782.329 562.804 771.592C571.518 766.542 576.323 759.903 576.334 752.895V737.451L569.822 738.614L569.184 738.771L568.7 738.351C566.659 736.594 564.44 735.056 562.079 733.761C555.002 729.842 545.993 727.34 535.88 726.509L529.273 722.134L486.242 725.682Z" fill="#150035"/>
<path d="M529.04 736.036L485.068 724.577C485.065 724.575 485.062 724.572 485.061 724.569C485.059 724.566 485.058 724.562 485.058 724.559C485.058 724.555 485.059 724.551 485.061 724.548C485.062 724.545 485.065 724.542 485.068 724.54C488.127 720.646 492.724 717.055 499.079 714.157C517.869 705.585 545.41 706.292 562.662 715.845C582.273 726.699 582.528 744.699 563.391 755.779C544.495 766.717 513.808 766.775 494.893 755.881C492.864 754.718 490.944 753.376 489.155 751.871C489.152 751.868 489.149 751.865 489.148 751.862C489.146 751.858 489.145 751.854 489.145 751.85C489.145 751.847 489.146 751.843 489.148 751.839C489.149 751.836 489.152 751.833 489.155 751.83L529.04 736.073C529.043 736.07 529.044 736.067 529.046 736.064C529.047 736.061 529.048 736.058 529.048 736.054C529.048 736.051 529.047 736.048 529.046 736.044C529.044 736.041 529.043 736.038 529.04 736.036Z" fill="white"/>
<path d="M578.755 735.836C578.835 743.813 573.592 751.265 563.996 756.825C544.794 767.949 513.523 768 494.284 756.931C492.192 755.731 490.211 754.348 488.364 752.797L487.82 752.315L488.101 750.959L525.219 736.291L484.656 725.718L484.04 725.485L483.73 724.267L484.094 723.797C487.459 719.509 492.327 715.896 498.554 713.059C517.793 704.287 545.585 705.038 563.227 714.787C568.696 717.814 572.816 721.438 575.437 725.43C577.527 728.504 578.68 732.119 578.755 735.836ZM529.343 734.866L530.21 735.099L530.305 736.886L491.514 752.199C492.785 753.153 494.113 754.03 495.491 754.824C514.063 765.506 544.247 765.459 562.782 754.722C571.591 749.617 576.403 742.916 576.338 735.85C576.265 728.679 571.197 721.948 562.064 716.891C545.042 707.47 518.172 706.763 499.564 715.247C494.412 717.595 490.267 720.482 487.193 723.869L529.343 734.866Z" fill="#150035"/>
<path d="M489.253 751.805L529.062 736.091C529.066 736.09 529.07 736.09 529.074 736.091C529.078 736.092 529.081 736.095 529.084 736.098C529.086 736.101 529.088 736.104 529.089 736.108C529.089 736.112 529.089 736.116 529.088 736.12L515.383 762.911C507.883 761.645 500.799 759.308 494.89 755.899C492.89 754.756 490.995 753.438 489.228 751.962C489.209 751.956 489.193 751.944 489.183 751.927C489.173 751.911 489.169 751.891 489.172 751.872C489.175 751.853 489.185 751.836 489.2 751.823C489.215 751.811 489.234 751.804 489.253 751.805Z" fill="white"/>
<path d="M516.054 764.234L515.179 764.085C507.344 762.761 500.121 760.289 494.284 756.931C492.225 755.748 490.273 754.386 488.451 752.862L487.908 752.344L488.174 750.944L528.548 734.997L529.39 734.632L530.539 735.949L516.054 764.234ZM495.491 754.835C500.865 757.927 507.497 760.242 514.712 761.547L526.576 738.359L491.51 752.213C492.78 753.166 494.105 754.041 495.48 754.835H495.491Z" fill="#150035"/>
<path d="M529.051 736.164H529.109L529.15 764.012C524.539 764.018 519.936 763.634 515.39 762.863L529.051 736.164Z" fill="#BC365E"/>
<path d="M530.364 765.229H529.153C524.474 765.236 519.803 764.847 515.19 764.066L513.564 763.789L527.975 735.613L528.413 734.734L530.316 735.223L530.364 765.229ZM527.939 762.805L527.906 741.06L517.228 761.944C520.772 762.467 524.346 762.754 527.928 762.805H527.939Z" fill="#150035"/>
<path d="M529.062 764.074L529.022 736.269C529.022 736.269 529.069 736.248 529.077 736.269L538.866 763.472C535.617 763.865 532.349 764.066 529.077 764.074H529.062Z" fill="#BC365E"/>
<path d="M540.503 764.489L538.997 764.672C535.7 765.07 532.383 765.273 529.062 765.28H527.855L527.811 736.28V735.238L529.86 734.898L540.503 764.489ZM537.192 762.437L530.24 743.084L530.269 762.852C532.558 762.812 534.877 762.674 537.192 762.437Z" fill="#150035"/>
<path d="M516.554 762.936L514.134 762.94L514.163 779.818L516.584 779.813L516.554 762.936Z" fill="#150035"/>
<path d="M564.767 756.898L562.347 756.903L562.372 771.446L564.793 771.442L564.767 756.898Z" fill="#BC365E"/>
<path d="M571.166 752.603L568.745 752.607L568.77 767.151L571.191 767.147L571.166 752.603Z" fill="#BC365E"/>
<path d="M496.74 727.638L494.319 727.642L494.348 744.519L496.769 744.515L496.74 727.638Z" fill="#150035"/>
<path d="M504.803 782.096C495.885 780.429 488.914 775.682 485.553 773.003C484.78 772.38 484.142 771.606 483.679 770.728C483.216 769.851 482.936 768.888 482.858 767.898L482.41 762.283L480 762.473L480.445 768.091C480.547 769.413 480.92 770.7 481.54 771.872C482.159 773.044 483.012 774.077 484.047 774.906C487.583 777.728 494.926 782.719 504.354 784.487L504.803 782.096Z" fill="#150035"/>
<path d="M510.256 783.287L509.922 785.685L518.981 786.948L519.316 784.551L510.256 783.287Z" fill="#150035"/>
<path d="M529.656 700.171C519.568 699.266 510.698 702.245 510.311 702.358L511.092 704.652C511.179 704.619 519.882 701.713 529.437 702.566L529.656 700.171Z" fill="#150035"/>
<path d="M507.02 703.555L500.028 706.306L500.912 708.555L507.905 705.805L507.02 703.555Z" fill="#150035"/>
<path d="M741.146 611L698.869 611.062C698.638 611.063 698.417 611.154 698.254 611.316C698.091 611.478 698 611.698 698 611.926L698.016 698.404C698.11 699.682 699.073 701.007 700.902 702.054L713.625 709.333C717.149 711.347 722.477 711.568 725.526 709.821L739.96 701.566C741.425 700.727 742.077 699.586 741.993 698.404V611.861C741.992 611.637 741.903 611.421 741.745 611.261C741.587 611.1 741.372 611.006 741.146 611Z" fill="#E33569"/>
<path d="M720.331 712C717.789 712.02 715.284 711.382 713.057 710.145L700.504 702.841C698.867 701.886 697.758 700.678 697.276 699.351H697.015L697 698.053V611.229C697.005 610.657 697.231 610.111 697.631 609.706C698.031 609.301 698.572 609.07 699.139 609.062L740.855 609C741.424 609.001 741.97 609.229 742.372 609.636C742.774 610.042 743 610.592 743 611.166V699.351H742.848C742.517 700.534 741.653 701.586 740.341 702.348L726.101 710.639C724.523 711.553 722.47 712 720.331 712ZM699.576 697.859V697.959C699.637 698.855 700.445 699.813 701.783 700.594L714.335 707.901C717.397 709.687 722.189 709.911 724.792 708.391L739.031 700.104C739.691 699.72 740.462 699.067 740.397 698.146L740.298 696.754H740.406V611.594L699.545 611.656L699.576 697.859Z" fill="#150035"/>
<path d="M741.144 611L722 611.031V711C723.325 710.903 724.616 710.528 725.789 709.899L739.992 701.635C741.434 700.795 742.076 699.653 741.993 698.47V611.865C741.993 611.637 741.904 611.419 741.745 611.257C741.586 611.095 741.37 611.002 741.144 611Z" fill="#150035"/>
<path d="M739.945 613.636L725.525 621.831C722.478 623.562 717.156 623.346 713.636 621.347L700.912 614.123C697.392 612.121 697.009 609.097 700.059 607.363L714.479 599.17C717.529 597.436 722.851 597.655 726.372 599.655L739.083 606.878C742.603 608.878 742.995 611.905 739.945 613.636Z" fill="white"/>
<path d="M720.323 625C717.784 625.018 715.281 624.379 713.054 623.142L700.518 615.804C698.284 614.501 697 612.672 697 610.792C697 609.151 697.953 607.692 699.674 606.686L713.908 598.367C717.312 596.369 723.05 596.585 726.936 598.859L739.485 606.191C741.719 607.497 743 609.323 743 611.203C743 612.844 742.05 614.3 740.326 615.309L726.092 623.625C724.513 624.545 722.459 625 720.323 625ZM719.624 599.629C717.944 599.629 716.347 599.961 715.183 600.641L700.949 608.957C700.33 609.33 699.559 609.95 699.559 610.811C699.559 611.672 700.395 612.747 701.793 613.564L714.342 620.897C717.399 622.685 722.186 622.914 724.795 621.388L739.03 613.073C739.649 612.7 740.419 612.08 740.419 611.218C740.419 610.31 739.587 609.283 738.188 608.465L725.64 601.13C723.792 600.124 721.722 599.608 719.624 599.629Z" fill="#150035"/>
<path d="M717 623H714V710H717V623Z" fill="#150035"/>
<path d="M738 619H736V700H738V619Z" fill="#BC365E"/>
<path d="M711.18 686L669.85 686.062C669.624 686.063 669.408 686.154 669.249 686.315C669.089 686.476 669 686.695 669 686.922V729.464C669.092 730.736 670.031 732.054 671.822 733.097L684.26 740.341C687.705 742.346 692.914 742.565 695.895 740.826L710.005 732.611C711.438 731.775 712.076 730.64 711.993 729.464V686.86C711.994 686.639 711.91 686.425 711.758 686.265C711.607 686.105 711.399 686.01 711.18 686Z" fill="#BC365E"/>
<path d="M690.846 743C688.248 743.019 685.689 742.382 683.412 741.148L670.581 733.849C668.911 732.914 667.775 731.693 667.285 730.368H667.016V729.075L667 686.225C667.001 685.653 667.232 685.104 667.643 684.699C668.054 684.294 668.611 684.066 669.192 684.065L711.811 684C712.392 684.001 712.949 684.229 713.359 684.634C713.769 685.039 714 685.588 714 686.16V730.368H713.845C713.507 731.549 712.621 732.603 711.283 733.363L696.731 741.638C695.127 742.548 693.029 743 690.846 743ZM669.635 728.878V728.981C669.702 729.873 670.524 730.829 671.891 731.609L684.722 738.908C687.851 740.684 692.744 740.911 695.405 739.397L709.957 731.119C710.631 730.736 711.419 730.088 711.352 729.168L711.251 727.778H711.359V686.593L669.6 686.655L669.635 728.878Z" fill="#150035"/>
<path d="M711.141 686L692 686.031V742C693.326 741.903 694.617 741.53 695.791 740.903L709.992 732.673C711.434 731.84 712.076 730.703 711.993 729.525V686.861C711.993 686.749 711.972 686.637 711.929 686.533C711.886 686.428 711.824 686.334 711.745 686.254C711.665 686.174 711.571 686.11 711.468 686.067C711.364 686.023 711.253 686 711.141 686Z" fill="#150035"/>
<path d="M709.989 688.63L695.894 696.83C692.916 698.562 687.713 698.346 684.272 696.346L671.847 689.13C668.406 687.129 668.032 684.104 671.01 682.368L685.105 674.171C688.084 672.436 693.29 672.655 696.731 674.656L709.156 681.884C712.594 683.881 712.968 686.898 709.989 688.63Z" fill="white"/>
<path d="M690.846 700C688.25 700.018 685.692 699.379 683.416 698.142L670.592 690.806C668.312 689.503 667 687.674 667 685.795C667 684.153 667.971 682.693 669.732 681.688L684.276 673.369C687.77 671.367 693.616 671.586 697.587 673.86L710.408 681.193C712.691 682.499 714 684.325 714 686.205C714 687.846 713.029 689.303 711.268 690.311L696.724 698.631C695.124 699.549 693.028 700 690.846 700ZM690.128 674.628C688.408 674.628 686.777 674.96 685.591 675.639L671.047 683.956C670.399 684.325 669.627 684.949 669.627 685.81C669.627 686.672 670.481 687.746 671.907 688.563L684.731 695.896C687.858 697.682 692.75 697.91 695.409 696.388L709.953 688.069C710.601 687.699 711.373 687.076 711.373 686.217C711.373 685.359 710.519 684.278 709.093 683.461L696.272 676.131C694.386 675.12 692.272 674.6 690.128 674.618V674.628Z" fill="#150035"/>
<path d="M687 698H684V741H687V698Z" fill="#150035"/>
<path d="M709 694H706V731H709V694Z" fill="#BC365E"/>
<path d="M257.654 290.18L208.53 290.257C208.262 290.257 208.006 290.363 207.816 290.553C207.627 290.742 207.52 290.999 207.52 291.267V306.427C207.63 307.925 208.745 309.478 210.875 310.703L225.658 319.242C229.753 321.605 235.943 321.86 239.487 319.815L256.258 310.131C257.961 309.15 258.719 307.812 258.62 306.427V291.194C258.622 290.933 258.522 290.681 258.341 290.492C258.161 290.303 257.915 290.191 257.654 290.18Z" fill="#BC365E"/>
<path d="M233.497 322.717C230.503 322.739 227.553 321.993 224.929 320.551L210.145 312.009C208.217 310.915 206.908 309.486 206.343 307.932H206.037L206.018 306.419V291.263C206.017 290.594 206.282 289.951 206.754 289.477C207.227 289.002 207.868 288.735 208.538 288.733L257.654 288.674C257.988 288.659 258.32 288.716 258.63 288.842C258.939 288.968 259.217 289.16 259.444 289.404C259.678 289.639 259.862 289.919 259.987 290.226C260.113 290.533 260.176 290.862 260.174 291.194V307.94H259.991C259.605 309.322 258.584 310.554 257.042 311.444L240.271 321.127C238.43 322.192 236.013 322.717 233.497 322.717ZM209.048 306.175V306.31C209.121 307.353 210.069 308.476 211.644 309.387L226.431 317.922C230.037 320.001 235.677 320.27 238.747 318.499L255.518 308.811C256.294 308.363 257.202 307.604 257.126 306.529L257.005 304.903H257.137V291.69L209.012 291.763L209.048 306.175Z" fill="#150035"/>
<path d="M257.654 290.228L235.05 290.26V321.149C236.615 321.039 238.14 320.599 239.523 319.858L256.294 310.178C257.997 309.194 258.755 307.856 258.657 306.47V291.227C258.655 290.962 258.549 290.708 258.361 290.521C258.173 290.334 257.919 290.229 257.654 290.228Z" fill="#150035"/>
<path d="M256.287 293.965L239.516 303.645C235.972 305.694 229.782 305.435 225.688 303.072L210.904 294.537C206.809 292.175 206.365 288.598 209.908 286.552L226.679 276.869C230.227 274.823 236.417 275.079 240.511 277.441L255.295 285.98C259.39 288.343 259.842 291.916 256.287 293.965Z" fill="white"/>
<path d="M233.497 306.54C230.503 306.561 227.554 305.817 224.929 304.378L210.145 295.842C207.513 294.322 206 292.196 206 290.009C206 288.098 207.119 286.403 209.154 285.229L225.924 275.545C229.935 273.219 236.691 273.474 241.27 276.118L256.057 284.657C258.69 286.177 260.199 288.303 260.199 290.49C260.199 292.401 259.08 294.1 257.049 295.27L240.278 304.954C238.43 306.022 236.013 306.54 233.497 306.54ZM232.669 277.007C230.686 277.007 228.805 277.372 227.438 278.181L210.667 287.865C209.938 288.295 209.03 289.017 209.03 290.02C209.03 291.022 210.014 292.273 211.662 293.225L226.446 301.76C230.052 303.838 235.692 304.104 238.761 302.336L255.532 292.652C256.261 292.222 257.169 291.496 257.169 290.494C257.169 289.491 256.185 288.241 254.541 287.289L239.757 278.754C237.58 277.583 235.141 276.982 232.669 277.007Z" fill="#150035"/>
<path d="M228.787 303.856H225.757V319.95H228.787V303.856Z" fill="#150035"/>
<path d="M254.078 299.776H251.748V307.677H254.078V299.776Z" fill="#BC365E"/>
<path d="M517.304 387.902L551.366 366.099C551.438 366.053 551.499 365.993 551.546 365.922C551.592 365.851 551.623 365.771 551.636 365.687C551.649 365.603 551.645 365.518 551.622 365.436C551.6 365.354 551.56 365.278 551.506 365.213L508.238 313.219C508.166 313.132 508.071 313.067 507.964 313.031C507.857 312.995 507.742 312.99 507.632 313.017C507.522 313.043 507.422 313.1 507.343 313.18C507.264 313.26 507.21 313.361 507.186 313.471L500.288 345.126C500.284 345.153 500.284 345.18 500.288 345.207L498.646 366.929C498.639 367.007 498.648 367.085 498.671 367.159C498.695 367.233 498.734 367.301 498.786 367.36L516.532 387.813C516.629 387.915 516.76 387.98 516.901 387.996C517.042 388.012 517.185 387.979 517.304 387.902Z" fill="#150035"/>
<path d="M517.151 389C516.692 389.001 516.239 388.902 515.822 388.709C515.406 388.517 515.037 388.236 514.741 387.886L496.716 366.976L496.644 365.51L498.25 344.087L505.062 312.489C505.185 311.911 505.469 311.379 505.881 310.955C506.294 310.53 506.818 310.231 507.393 310.09C507.969 309.95 508.572 309.974 509.135 310.16C509.697 310.346 510.195 310.687 510.572 311.143L553.644 363.275L553.596 364.877C553.53 365.319 553.369 365.741 553.125 366.116C552.881 366.49 552.56 366.808 552.182 367.048L518.838 388.535C518.332 388.847 517.746 389.009 517.151 389ZM501.825 365.045L517.529 383.303L547.531 363.963L509.223 317.593L503.335 344.776L501.825 365.045Z" fill="#150035"/>
<path d="M644.298 230.757L484.708 138.146C480.678 135.829 477.083 135.473 474.286 136.672L443.078 155.466C442.965 155.53 442.868 155.619 442.794 155.726C442.721 155.833 442.673 155.956 442.653 156.085C442.634 156.214 442.644 156.345 442.682 156.47C442.721 156.594 442.787 156.708 442.876 156.803L480.17 196.441C480.321 196.6 480.405 196.812 480.404 197.032V262.513C480.404 272.947 487.763 285.754 496.75 290.971L520.551 304.808C521.132 305.618 521.631 306.347 522.22 307.165C523.405 314.084 529.973 342.996 559.215 363.062C560.36 363.873 561.126 362.706 560.368 361.264C556.532 353.973 549.294 337.974 551.502 325.433L554.129 324.291L603.369 352.863C603.539 352.965 603.67 353.122 603.739 353.309L624.292 408.444C624.338 408.56 624.407 408.665 624.496 408.752C624.585 408.839 624.692 408.906 624.808 408.948C624.925 408.991 625.05 409.007 625.173 408.997C625.297 408.987 625.417 408.95 625.526 408.89L656.404 390.209C659.023 388.435 660.644 385 660.644 380.164V259.216C660.644 248.781 653.285 235.949 644.298 230.757Z" fill="white"/>
<path d="M625.369 411C624.977 411.001 624.588 410.933 624.22 410.798C623.748 410.633 623.318 410.366 622.962 410.016C622.605 409.666 622.331 409.241 622.157 408.773L601.746 354.431L554.014 326.934L553.893 326.99C552.518 338.738 559.556 353.616 562.727 359.676C563.698 361.507 563.472 363.516 562.169 364.678C561.568 365.19 560.809 365.481 560.018 365.503C559.228 365.525 558.454 365.277 557.825 364.799C528.7 344.975 521.363 317.042 519.696 308.021L518.685 306.601L495.296 293.126C485.531 287.478 477.595 273.762 477.595 262.547V197.998L440.583 159.035C440.224 158.656 439.957 158.2 439.801 157.703C439.645 157.206 439.604 156.679 439.682 156.164C439.76 155.649 439.954 155.158 440.251 154.728C440.547 154.299 440.937 153.942 441.392 153.686L472.676 134.999C476.673 133.256 481.22 133.829 485.75 136.443L645.934 228.683C655.699 234.331 663.644 248.047 663.644 259.263V379.71C663.644 385.205 661.726 389.513 658.247 391.813L627.141 410.484C626.606 410.807 625.995 410.985 625.369 411ZM554.322 321.173L604.869 350.276C605.576 350.683 606.113 351.33 606.382 352.099L626.267 405.021L655.481 387.496C657.374 386.213 658.482 383.462 658.482 379.702V259.263C658.482 249.822 651.557 237.865 643.362 233.153L483.177 140.881C480.087 139.098 477.191 138.622 475.031 139.55L445.841 157.018L481.794 194.94C482.402 195.581 482.741 196.43 482.74 197.312V262.522C482.74 271.963 489.657 283.92 497.853 288.632L522.552 303.156L524.671 306.569C525.569 311.781 531.144 337.334 555.414 356.674C551.369 347.799 547.057 335.317 548.942 324.747L549.185 323.375L554.322 321.173Z" fill="#150035"/>
<path d="M612.713 250.41L452.574 158.168C443.774 153.105 436.644 157.21 436.644 167.354V287.981C436.644 298.117 443.774 310.45 452.574 315.514L477.207 329.715C477.531 329.928 477.808 330.205 478.022 330.529C478.235 330.853 478.381 331.217 478.449 331.598C479.522 338.039 485.91 367.205 515.512 387.372C516.657 388.177 517.423 387.026 516.665 385.593C512.689 378.049 505.066 361.329 508.059 348.681C508.204 348.086 508.769 347.876 509.382 348.255L612.713 407.828C621.505 412.9 628.644 408.786 628.644 398.65V277.942C628.644 267.807 621.505 255.482 612.713 250.41Z" fill="#E33569"/>
<path d="M620.19 412.999C617.204 412.904 614.294 412.033 611.75 410.471L510.044 351.923C508.61 363.673 515.625 378.573 518.881 384.759C519.853 386.592 519.627 388.603 518.314 389.766C517.714 390.281 516.953 390.574 516.161 390.596C515.369 390.618 514.593 390.368 513.965 389.887C483.184 368.89 476.655 338.203 475.651 332.227L450.929 317.901C441.209 312.321 433.644 299.206 433.644 288.021V166.984C433.644 161.097 435.766 156.639 439.622 154.419C443.477 152.198 448.41 152.594 453.521 155.541L614.358 248.104C624.078 253.684 631.644 266.799 631.644 277.983V399.036C631.644 404.915 629.521 409.373 625.666 411.594C623.998 412.539 622.108 413.024 620.19 412.999ZM508.675 345.729C509.339 345.732 509.991 345.91 510.563 346.246L614.342 406.006C617.776 407.976 620.862 408.38 623.057 407.12C625.252 405.86 626.451 402.993 626.451 399.044V277.959C626.451 268.793 619.72 257.164 611.75 252.577L450.929 160.007C447.495 158.028 444.384 157.641 442.214 158.893C440.043 160.144 438.82 163.019 438.82 166.968V288.029C438.82 297.203 445.551 308.824 453.521 313.419L478.275 327.656C478.934 328.06 479.498 328.6 479.93 329.239C480.362 329.878 480.651 330.603 480.778 331.363C481.661 336.596 487.105 362.252 511.64 381.73C507.363 372.427 502.876 359.183 505.451 348.33C505.611 347.592 506.02 346.931 506.61 346.458C507.199 345.984 507.934 345.727 508.691 345.729H508.675Z" fill="#150035"/>
<path d="M646.987 233.194L619.039 250.188L621.721 254.6L649.669 237.606L646.987 233.194Z" fill="#150035"/>
<path d="M486.493 144.645L458.69 161.654L461.375 166.043L489.178 149.034L486.493 144.645Z" fill="#150035"/>
<path d="M658.475 263.534L627.675 283.043L630.438 287.405L661.237 267.896L658.475 263.534Z" fill="#150035"/>
<path d="M660.644 282L628.644 301.395V407L659.612 390.018L660.644 382.453V282Z" fill="#150035"/>
<path d="M482.453 63L479.647 98.0776L484.811 98.4907L487.617 63.4131L482.453 63Z" fill="#150035"/>
<path d="M449.239 71.7829L444.51 73.8567L460.737 110.858L465.465 108.784L449.239 71.7829Z" fill="#150035"/>
<path d="M414.54 103.361L412 107.856L441.3 124.414L443.84 119.918L414.54 103.361Z" fill="#150035"/>
<path d="M543.941 341C542.059 341 539.883 340.272 537.347 338.802C533.82 336.817 530.838 333.988 528.665 330.568C526.572 327.246 525.465 323.394 525.476 319.464C525.476 315.179 526.672 312.413 529.024 311.23C531.376 310.047 534.469 310.655 538.591 313.037C542.121 315.009 545.086 317.858 547.202 321.311C549.201 324.631 550.247 328.44 550.223 332.318C550.223 336.571 548.988 339.305 546.54 340.44C545.725 340.814 544.838 341.005 543.941 341ZM531.631 313.213C531.133 313.198 530.638 313.302 530.188 313.517C528.769 314.228 528.051 316.227 528.051 319.464C528.033 322.911 528.996 326.291 530.826 329.209C532.774 332.279 535.454 334.815 538.623 336.587C541.621 338.338 543.949 338.849 545.496 338.122C547.042 337.395 547.704 335.484 547.704 332.318C547.724 328.906 546.806 325.553 545.049 322.63C543.153 319.549 540.501 317.006 537.347 315.243C535.051 313.892 533.074 313.213 531.631 313.213ZM546.644 310.911L527.788 299.991V293.963C527.788 289.631 528.585 286.457 530.18 284.267C531.775 282.076 534.629 280.613 538.575 280.03C541.214 279.63 543.096 279.015 544.156 278.199C545.089 277.496 545.543 276.297 545.543 274.53C545.458 272.88 544.84 271.303 543.781 270.037C542.451 268.319 540.792 266.884 538.902 265.816C533.792 262.867 527.693 261.492 520.828 261.716H519.895L511.644 238.261L513.294 238.125C522.375 237.39 531.886 239.892 541.661 245.56C549.216 249.77 555.72 255.643 560.683 262.739C565.3 269.542 567.644 276.624 567.644 283.787C567.644 289.023 566.535 293.044 564.359 295.778C562.182 298.512 558.666 300.239 553.994 300.99C549.434 301.789 548.031 302.461 547.616 302.797C547.002 303.292 546.692 304.22 546.692 305.571L546.644 310.911ZM530.332 298.504L544.092 306.498V305.579C544.092 303.412 544.73 301.805 545.982 300.782C546.699 300.215 548.262 299.351 553.548 298.448C557.614 297.8 560.572 296.361 562.358 294.147C564.144 291.933 565.076 288.447 565.076 283.811C565.076 277.176 562.884 270.573 558.555 264.194C554.226 257.815 548.063 252.243 540.377 247.79C531.655 242.746 523.148 240.308 515.152 240.596L521.665 259.126C528.665 259.078 534.86 260.524 540.162 263.594C542.347 264.829 544.263 266.49 545.799 268.479C547.198 270.185 548 272.306 548.079 274.514C548.079 277.096 547.282 279.015 545.687 280.222C544.252 281.317 542.036 282.076 538.926 282.54C535.673 283.02 533.417 284.139 532.221 285.738C531.025 287.336 530.34 290.214 530.34 293.931L530.332 298.504Z" fill="white"/>
<path d="M520.327 290.895V285.519C520.327 281.459 521.037 278.405 522.456 276.432C523.876 274.458 526.389 273.183 530.003 272.647C532.875 272.209 534.941 271.51 536.193 270.536C537.445 269.561 538.084 267.986 538.084 265.777C538.01 263.817 537.301 261.938 536.065 260.433C534.632 258.547 532.842 256.973 530.8 255.804C525.445 252.659 519.191 251.213 512.038 251.468L504.644 230.126C513.477 229.395 522.693 231.853 532.292 237.499C540.19 242.145 546.391 247.829 550.895 254.554C555.399 261.278 557.649 268.162 557.644 275.205C557.644 280.24 556.644 284.014 554.644 286.526C552.645 289.038 549.454 290.662 545.072 291.399C541.346 292.04 539.017 292.747 538.084 293.502C537.15 294.257 536.672 295.54 536.672 297.335V300.519L520.327 290.895ZM518.045 311.425C518.045 307.592 518.992 305.191 520.885 304.222C522.778 303.253 525.57 303.851 529.261 306.017C532.605 307.911 535.415 310.649 537.422 313.967C539.3 317.14 540.283 320.779 540.261 324.484C540.261 328.274 539.278 330.631 537.31 331.557C535.348 332.491 532.659 331.947 529.261 329.933C525.91 328.025 523.078 325.299 521.021 321.999C519.056 318.836 518.023 315.167 518.045 311.425Z" fill="#150035"/>
<path d="M204.743 476.981L205.999 422.081C206 422.077 206 422.074 206 422.07C205.999 422.067 205.998 422.064 205.995 422.061C205.993 422.058 205.99 422.056 205.987 422.055C205.984 422.053 205.981 422.052 205.977 422.053C188.036 421.597 169.915 424.1 154.019 429.557C153.997 429.557 153.991 429.582 154.019 429.598L204.705 476.996C204.708 476.998 204.712 477 204.716 477C204.72 477 204.724 477 204.728 476.998C204.732 476.997 204.735 476.994 204.737 476.991C204.74 476.988 204.742 476.985 204.743 476.981Z" fill="white"/>
<path d="M204.163 479L203.527 478.375L153 430.379L153.26 428.932L153.967 428.66C169.587 423.215 187.458 420.565 205.735 421.058L206.975 421.09L207 422.384L205.76 478.306L204.163 479ZM156.823 430.441L203.266 474.555L204.42 423.609C187.805 423.331 171.333 425.665 156.823 430.441Z" fill="#150035"/>
<path d="M204.034 499.996L268 461.578V461.534C250.822 451.093 228.202 445.58 205.27 445C205.263 445 205.257 445.003 205.252 445.007C205.247 445.012 205.245 445.018 205.245 445.025L204 499.99C204.004 499.995 204.009 499.998 204.016 500C204.022 500.001 204.029 499.999 204.034 499.996Z" fill="#BC365E"/>
<path d="M204.345 501L203 500.271V499.496L204.268 444.025L205.548 444C229.503 444.615 251.811 450.478 268.383 460.499L269 460.871V462.317L268.383 462.732L204.345 501ZM206.76 446.593L205.6 497.254L265.234 461.625C249.532 452.646 228.908 447.34 206.76 446.593Z" fill="#150035"/>
<path d="M204.004 499.291L204.07 542.975C204.07 542.979 204.071 542.984 204.073 542.987C204.075 542.991 204.078 542.994 204.082 542.997C204.086 542.999 204.09 543 204.095 543C204.099 543 204.103 542.999 204.107 542.997L267.997 507.187C267.999 507.183 268 507.18 268 507.176C268 507.172 267.999 507.168 267.997 507.165V461.025C267.997 461.021 267.996 461.016 267.994 461.013C267.992 461.009 267.989 461.006 267.985 461.003C267.981 461.001 267.977 461 267.972 461C267.968 461 267.964 461.001 267.96 461.003L204.001 499.269C204 499.273 204 499.277 204 499.28C204.001 499.284 204.002 499.288 204.004 499.291Z" fill="#150035"/>
<path d="M204.354 544L203.065 543.259V542.506L203 498.524L203.718 498.149L267.628 460L268.985 460.667L269 461.478V507.966L268.18 508.307L204.354 544ZM205.547 500.021L205.612 540.367L266.422 506.364V463.682L205.547 500.021Z" fill="#150035"/>
<path d="M292.977 564.392V522.025C292.977 522.018 292.975 522.012 292.97 522.007C292.965 522.003 292.959 522 292.953 522L204.139 523.65C204.133 523.65 204.126 523.652 204.122 523.657C204.117 523.662 204.114 523.668 204.114 523.675L204 578.292H204.204L223.404 628H223.432C239.073 625.748 253.893 621.081 266.113 613.992C283.195 604.084 292.046 591.933 292.835 578.953L292.909 578.276C292.909 578.276 293.055 565.51 292.977 564.392Z" fill="#BC365E"/>
<path d="M223.368 630L222.569 629.598L222.363 629.115L203.615 580.106L203 580.128L203.123 522.702L293.957 521L293.982 522.343V564.811C294.043 566.173 293.932 577.494 293.923 578.797L293.84 579.604C293.02 593.289 283.618 605.801 266.655 615.73C254.788 622.676 239.959 627.594 223.774 629.944L223.368 630ZM205.542 578.002L205.662 578.314L224.379 627.242C239.86 624.88 254.014 620.137 265.361 613.495C281.546 604.018 290.508 592.229 291.28 579.392L291.357 578.651C291.403 573.643 291.458 565.718 291.412 564.938V523.636L205.662 525.245L205.542 578.002Z" fill="#150035"/>
<path d="M292.845 578.986L292.919 578.308C292.919 578.308 293.047 565.523 292.981 564.404V522.025C292.981 522.019 292.978 522.013 292.973 522.008C292.969 522.004 292.963 522.001 292.957 522L273.853 522.354C273.85 522.353 273.848 522.353 273.845 522.353C273.842 522.353 273.84 522.353 273.837 522.354C259.099 533.613 228.388 557.406 228.239 557.521L223.13 573.594L223 627.667L223.13 628C223.13 628 223.149 628 223.168 628C238.868 625.747 253.746 621.079 266.021 613.991C283.169 604.124 292.056 591.963 292.845 578.986Z" fill="#150035"/>
<path d="M222.616 630L222 628.228L222.188 573.632L227.178 557.778L227.104 557.015L227.868 556.756C230.4 554.769 258.919 532.466 272.935 521.641L273.28 521.377H273.726L293.955 521L293.98 522.342V564.809C294.045 565.865 293.934 577.437 293.921 578.754L293.844 579.523C293.006 593.25 283.58 605.744 266.592 615.647C254.702 622.588 239.842 627.499 223.623 629.851L222.616 630ZM224.674 574.226L224.551 627.098C239.928 624.731 254.002 620.007 265.298 613.414C281.52 603.944 290.502 592.164 291.278 579.337L291.355 578.595C291.398 573.591 291.457 565.672 291.411 564.893V523.628L274.136 523.94C260.071 534.814 232.766 556.177 229.569 558.678L224.674 574.226Z" fill="#150035"/>
<path d="M204 524.208L223.317 573.997C223.321 573.999 223.326 574 223.331 574C223.336 574 223.34 573.999 223.345 573.997C239.015 571.751 253.861 567.099 266.099 560.03C301.418 539.636 301.954 506.784 267.735 486H267.732L204.025 524.161L204 524.208Z" fill="white"/>
<path d="M222.77 575L222.37 574.056L203 524.323L203.307 523.478L203.738 523.208L266.827 485.539L267.368 485L268.217 485.414C285.032 495.587 294.155 508.935 293.998 523.049C293.835 537.396 284.128 550.832 266.661 560.883C254.793 567.713 239.961 572.546 223.763 574.859L222.77 575ZM205.958 524.851L224.384 572.196C239.896 569.867 254.043 565.207 265.382 558.68C282.038 549.095 291.292 536.433 291.443 523.018C291.584 510.02 283.141 497.619 267.623 488.031L205.958 524.851Z" fill="#150035"/>
<path d="M222.935 607.686L207.546 588.533L203.826 578.913L143.61 544.028L143.57 541.724H139.636L136.656 540H136.632C135.656 540.564 134.717 541.146 133.793 541.731L110.002 556.203C109.999 556.21 109.999 556.218 110.002 556.225V577.13C109.941 590.679 118.821 604.228 136.656 614.559C160.058 628.107 193.034 632.745 222.978 628.452C222.993 628.452 223.002 628.452 222.999 628.431L222.978 628.372V607.716C222.978 607.716 222.938 607.686 222.935 607.686Z" fill="#E33569"/>
<path d="M201.105 632C176.766 632 153.371 626.51 135.615 616.298C117.738 606.018 107.932 592.271 108 577.587V555.852L108.662 555.459L132.709 540.924C133.64 540.339 134.6 539.748 135.603 539.173L135.913 539H136.594L136.904 539.173L139.624 540.72H144.537L144.583 543.574L205.223 578.441L205.403 578.797L209.157 588.415L224.882 607.744V608.292V628.796L225 629.105L224.494 630.206L223.901 630.361C216.351 631.444 208.733 631.992 201.105 632ZM110.581 557.306V577.594C110.516 591.322 119.866 604.277 136.907 614.087C159.088 626.838 191.718 632.152 222.32 628.032V608.771L206.741 589.315L203.223 580.284L142.049 545.105L142.021 543.327H138.916L138.578 543.11L136.271 541.783C135.519 542.226 134.789 542.674 134.069 543.129L110.581 557.306Z" fill="#150035"/>
<path d="M171 626.373C186.164 629.122 201.659 629.718 217 628.141V600.36L206.862 588.169L204.394 582H171V626.373Z" fill="#150035"/>
<path d="M199.768 631C189.803 631.012 179.859 630.1 170.066 628.276L169 628.073V580H204.874L207.621 587.019L218 599.754V629.991L216.827 630.116C211.16 630.707 205.466 631.002 199.768 631ZM171.624 625.921C186.058 628.488 200.781 629.07 215.376 627.651V600.669L205.158 588.115V587.9L203.083 582.589H171.627L171.624 625.921Z" fill="#150035"/>
<path d="M142 617.601C147.483 620.17 153.168 622.309 159 624V579H142V617.601Z" fill="#150035"/>
<path d="M160 625L158.354 624.5C152.647 622.785 147.084 620.616 141.719 618.013L141 617.661V577H160V625ZM143.552 616.064C148.054 618.202 152.696 620.028 157.445 621.531V579.57H143.552V616.064Z" fill="#150035"/>
<path d="M222.998 607.417L203.861 557.93L136.675 519H136.65C101.113 539.592 101.12 572.973 136.65 593.562C160.053 607.109 193.028 611.746 222.974 607.451C222.995 607.438 223.004 607.438 222.998 607.417Z" fill="white"/>
<path d="M201.068 611C176.751 611 153.359 605.519 135.607 595.328C117.804 585.11 108 571.441 108 556.846C108 542.251 117.798 528.589 135.594 518.367L136.237 518L136.904 518.364L205.183 557.559L205.363 557.914L225 608.08L224.46 609.232L223.824 609.38C216.287 610.453 208.682 610.995 201.068 611ZM136.255 520.954C119.691 530.65 110.576 543.378 110.579 556.846C110.579 570.487 119.927 583.363 136.898 593.106C158.952 605.76 191.344 611.077 221.794 607.087L203.172 559.377L136.255 520.954Z" fill="#150035"/>
<path d="M153.827 415.005C147.649 417.053 141.684 419.665 136.013 422.807C136.009 422.809 136.006 422.813 136.003 422.816C136.001 422.82 136 422.824 136 422.829C136 422.833 136.001 422.837 136.003 422.841C136.006 422.845 136.009 422.848 136.013 422.85L203.968 460.999C203.973 461 203.978 461 203.983 460.999C203.988 460.997 203.992 460.994 203.995 460.99C203.998 460.986 204 460.982 204 460.977C204 460.972 203.999 460.967 203.996 460.963L153.852 415.002C153.847 415 153.843 415 153.839 415C153.834 415.001 153.83 415.002 153.827 415.005Z" fill="#E33569"/>
<path d="M204.613 463L203.592 462.385L136.031 423.269L136 421.768L136.666 421.374C142.299 418.157 148.221 415.479 154.354 413.375L155.103 413L155.778 413.655L206 461.12L204.613 463ZM139.841 422.534L195.61 454.835L154.557 416.039C149.488 417.811 144.567 419.982 139.841 422.534Z" fill="#150035"/>
<path d="M136.003 422.032V518.768C136.001 518.772 136 518.775 136 518.779C136 518.783 136.001 518.787 136.003 518.79L203.963 557.997C203.967 557.999 203.971 558 203.975 558C203.98 558 203.984 557.999 203.988 557.997C203.991 557.994 203.995 557.991 203.997 557.987C203.999 557.984 204 557.979 204 557.975L203.873 461.139C203.875 461.133 203.875 461.127 203.873 461.121L136.04 422.004C136.036 422.001 136.031 422 136.025 422C136.02 422 136.015 422.002 136.011 422.005C136.007 422.008 136.004 422.012 136.003 422.017C136.001 422.022 136.001 422.027 136.003 422.032Z" fill="#BC365E"/>
<path d="M204.724 560L204.059 559.64L136 520.04V519.276V421.767L137.3 421L137.966 421.382L205.874 460.87V461.634L206 559.233L204.724 560ZM138.548 518.546L203.436 556.311L203.313 462.37L138.548 424.714V518.546Z" fill="#150035"/>
<path d="M251 496L259 491.751V468L251 472.101V496Z" fill="#BC365E"/>
<path d="M250 499V470.867L260 465V492.927L250 499ZM252.678 472.353V494.29L257.325 491.451V469.609L252.678 472.353Z" fill="#150035"/>
<path d="M288 547H285V592H288V547Z" fill="#BC365E"/>
<path d="M247 477H244V498H247V477Z" fill="#BC365E"/>
<path d="M144 427H141V522H144V427Z" fill="#150035"/>
<path d="M183 449H181V546H183V449Z" fill="#150035"/>
<path d="M217 553H214V587H217V553Z" fill="#150035"/>
<path d="M233 574H230V624H233V574Z" fill="#BC365E"/>
<path d="M124.697 618C109.333 609.912 103.423 596.875 101.268 589.833C100.419 587.017 99.9921 584.099 100 581.167V566H102.693V581.167C102.682 583.856 103.073 586.533 103.854 589.115C105.89 595.789 111.478 608.12 126 615.765L124.697 618Z" fill="#150035"/>
<path d="M103 550H100V562H103V550Z" fill="#150035"/>
<path d="M260.996 460.104C260.996 460.104 268.374 458.794 270.081 465.479C271.788 472.163 273.97 487.748 273.97 499.511C273.97 508.042 277 521 277 521L254.04 517.934L249 501.223L260.996 460.104Z" fill="white"/>
<path d="M254.271 518.695L249 501.186L261.222 459.23L261.738 459.139C264.55 458.636 270.289 459.249 271.795 465.149C273.398 471.402 275.713 487.251 275.713 499.467C275.713 507.821 278.694 520.684 278.725 520.812L279 522L254.271 518.695ZM262.535 460.737L250.753 501.183L255.567 517.173L276.813 520.015C276.066 516.597 274.026 506.608 274.026 499.47C274.026 487.388 271.739 471.755 270.161 465.568C269.074 461.312 265.406 460.7 263.381 460.7C263.053 460.7 262.763 460.715 262.535 460.737Z" fill="#150035"/>
<path d="M307 619.637C307 619.637 306.348 614.751 301.793 610.623C297.238 606.496 291.267 597.815 291.267 597.815L289.534 596L288 596.494C288 596.494 288.745 607.372 288 612.261L291.487 614.313L291.996 612.973C291.996 612.973 296.343 617.679 300.529 619.189C304.715 620.7 307 619.637 307 619.637Z" fill="#150035"/>
<path d="M300.263 620.116C297.041 618.948 293.816 616.088 292.27 614.582L291.869 615.637L287 612.777L287.088 612.213C287.814 607.453 287.088 596.624 287.088 596.518L287.044 595.861L289.721 595L291.913 597.313C291.972 597.4 297.927 606.02 302.399 610.063C307.164 614.376 307.887 619.452 307.919 619.649L308 620.275L307.446 620.538C306.594 620.874 305.681 621.03 304.766 620.995C303.225 620.967 301.701 620.669 300.263 620.116ZM301.262 611.312C296.647 607.14 290.767 598.627 290.616 598.371L289.232 596.925L288.813 597.062C288.957 599.425 289.383 607.444 288.841 611.897L291.014 613.174L291.64 611.484L292.564 612.482C292.608 612.529 296.853 617.093 300.836 618.535C303.422 619.474 305.22 619.349 306.096 619.161C305.281 616.131 303.602 613.404 301.262 611.312Z" fill="#150035"/>
<path d="M296.596 596.678C296.596 596.678 297.282 605.878 301 611.241C301 611.241 299.336 615.199 294.836 611.241C290.336 607.282 290 594 290 594L296.596 596.678Z" fill="#BC365E"/>
<path d="M294.304 611.163C289.442 607.218 289.046 594.746 289.032 594.216L289 593L297.296 596.101L297.339 596.652C297.339 596.737 298.063 605.141 301.681 609.947L302 610.372L301.776 610.867C301.523 611.365 301.179 611.8 300.766 612.147C300.353 612.493 299.88 612.743 299.375 612.88C299.072 612.96 298.762 613 298.451 613C297.193 612.994 295.803 612.379 294.304 611.163ZM295.852 597.345L290.643 595.401C290.864 598.581 291.771 607.003 295.22 609.799C296.687 610.99 297.997 611.487 298.988 611.232C299.422 611.12 299.816 610.868 300.119 610.508C297.009 605.983 296.07 599.302 295.852 597.345Z" fill="#150035"/>
<path d="M297 623.637C297 623.637 296.348 618.751 291.793 614.623C287.238 610.496 281.267 601.815 281.267 601.815L279.534 600L278 600.494C278 600.494 278.742 611.372 278 616.261L281.487 618.313L281.996 616.973C281.996 616.973 286.343 621.679 290.526 623.189C294.708 624.7 297 623.637 297 623.637Z" fill="#150035"/>
<path d="M290.266 623.15C287.044 622.03 283.819 619.277 282.27 617.826L281.872 618.843L277 616.093L277.088 615.551C277.814 610.974 277.088 600.565 277.088 600.46L277.044 599.828L279.721 599L281.913 601.227C281.972 601.308 287.927 609.599 292.402 613.484C297.167 617.631 297.89 622.512 297.922 622.701L298 623.303L297.446 623.556C296.595 623.879 295.683 624.029 294.769 623.995C293.228 623.968 291.704 623.682 290.266 623.15ZM291.265 614.685C286.647 610.673 280.767 602.488 280.619 602.241L279.239 600.854L278.819 600.983C278.963 603.255 279.386 610.968 278.844 615.247L281.017 616.475L281.643 614.847L282.583 615.81C282.626 615.855 286.869 620.243 290.855 621.63C293.441 622.533 295.238 622.412 296.115 622.232C295.297 619.316 293.611 616.693 291.265 614.685Z" fill="#150035"/>
<path d="M286.597 601.396C286.597 601.396 287.28 609.631 291 614.426C291 614.426 289.336 617.968 284.838 614.426C280.339 610.884 280 599 280 599L286.597 601.396Z" fill="#BC365E"/>
<path d="M284.712 615.169C279.479 611.227 279.05 598.752 279.034 598.223L279 597L287.931 600.104L287.981 600.652C287.981 600.737 288.757 609.141 292.654 613.947L293 614.372L292.759 614.867C292.485 615.365 292.114 615.8 291.669 616.146C291.224 616.493 290.714 616.742 290.17 616.88C289.844 616.96 289.51 617 289.175 617C287.826 617 286.329 616.386 284.712 615.169ZM286.382 601.355L280.772 599.407C281.01 602.59 281.987 611.01 285.702 613.805C287.279 614.996 288.692 615.494 289.759 615.239C290.227 615.127 290.65 614.875 290.974 614.514C287.628 609.989 286.608 603.321 286.382 601.345V601.355Z" fill="#150035"/>
<path d="M290.218 552.655C298.581 548.19 302.327 545.323 300.579 539.43L295.599 535.262L278.256 533L267.46 542.827L266 549.779L276.214 555.996C276.214 555.996 283.487 556.246 290.218 552.655Z" fill="#150035"/>
<path d="M275.895 556.978H275.674L265 550.264L266.601 542.391L277.64 532L295.243 534.372L300.49 538.914L300.561 539.154C302.532 546.022 297.666 549.287 290.021 553.513C284.106 556.775 277.87 557 276.266 557L275.895 556.978ZM289.243 552.021C297.589 547.414 300.38 544.842 299.055 539.847L294.566 535.964L278.213 533.757L268.122 543.25L266.861 549.443L276.174 555.302H276.205C277.483 555.302 283.616 555.13 289.255 552.021H289.243Z" fill="#150035"/>
<path d="M291.973 537.421C291.973 537.421 300 536.533 300 551.457C300 566.38 297.384 586.277 297.531 598.641C297.531 598.641 292.303 600.49 288.961 595.8C289.257 589.06 288.966 582.308 288.091 575.616C286.639 564.247 287.218 553.162 288.091 550.462C288.091 550.462 275.749 550.746 267.036 542.785C258.323 534.825 280.394 529 280.394 529L291.973 537.421Z" fill="white"/>
<path d="M288.33 596.466L288.16 596.227L288.179 595.939C288.468 589.224 288.175 582.497 287.305 575.83C286.009 565.718 286.292 555.356 287.079 551.271C283.799 551.152 273.846 550.196 266.324 543.36C264.399 541.611 263.663 539.775 264.141 537.909C265.651 531.992 279.566 528.273 280.157 528.104L280.553 528L292.327 536.524C294.007 536.567 295.613 537.204 296.846 538.317C299.601 540.716 301 545.137 301 551.452C301 559.06 300.327 567.9 299.676 576.452C299.047 584.82 298.437 592.722 298.506 598.819V599.408L297.94 599.607C297.054 599.872 296.131 600.004 295.204 599.999C293.846 600.02 292.505 599.707 291.303 599.09C290.102 598.472 289.079 597.57 288.33 596.466ZM297.991 576.341C298.638 567.82 299.311 559.011 299.311 551.464C299.311 544.249 297.381 541.025 295.761 539.594C294.013 538.062 292.242 538.179 292.154 538.188L291.84 538.225L280.223 529.814C276.198 530.929 266.817 534.312 265.799 538.307C265.484 539.564 266.031 540.823 267.494 542.156C275.918 549.816 288.044 549.635 288.138 549.641L289.321 549.614L288.962 550.714C288.195 553.088 287.509 564.033 288.997 575.624C289.858 582.297 290.159 589.026 289.896 595.746C292.255 598.81 295.522 598.504 296.815 598.222C296.789 592.137 297.371 584.452 297.991 576.332V576.341Z" fill="#150035"/>
<path d="M280.763 539.695C280.763 539.695 291 539.52 291 554.775C291 570.03 288.021 589.424 288.165 602.065C288.165 602.065 282.319 605.078 278.978 600.284C279.273 593.396 278.98 586.495 278.105 579.655C276.807 569.269 277.132 559.12 277.84 555.102C277.865 554.96 277.859 554.813 277.823 554.673C277.787 554.533 277.721 554.402 277.63 554.289C277.539 554.176 277.425 554.084 277.295 554.019C277.166 553.954 277.024 553.917 276.879 553.911C273.545 553.746 264.09 552.685 257.037 546.095C248.319 537.957 270.403 532 270.403 532L280.763 539.695Z" fill="white"/>
<path d="M277.695 599.97L277.529 599.732L277.548 599.442C277.83 592.676 277.546 585.899 276.696 579.182C275.397 568.687 275.777 558.501 276.442 554.64L277.254 554.785L276.267 554.43C272.592 554.248 263.314 553.106 256.266 546.473C254.389 544.711 253.672 542.862 254.138 540.982C255.608 535.025 269.146 531.275 269.74 531.105L270.123 531L280.405 538.698C282.825 538.888 285.098 539.94 286.819 541.664C289.591 544.408 291 548.711 291 554.443C291 562.159 290.247 570.854 289.518 579.277C288.813 587.423 288.145 595.118 288.216 601.232V601.745L287.766 601.979C286.448 602.64 284.998 602.988 283.526 602.998C282.38 603.027 281.245 602.765 280.226 602.236C279.207 601.707 278.336 600.927 277.695 599.97ZM287.876 579.148C288.602 570.761 289.352 562.088 289.352 554.455C289.352 549.208 288.127 545.309 285.692 542.886C284.21 541.387 282.232 540.489 280.136 540.365H279.857L269.786 532.821C265.869 533.945 256.732 537.349 255.737 541.377C255.43 542.646 255.966 543.914 257.387 545.254C264.04 551.51 272.864 552.594 276.35 552.767C276.61 552.78 276.865 552.848 277.096 552.968C277.328 553.088 277.532 553.256 277.695 553.461C277.855 553.665 277.97 553.9 278.034 554.151C278.098 554.403 278.108 554.665 278.065 554.921C277.407 558.699 277.051 568.656 278.332 578.969C279.171 585.69 279.464 592.469 279.208 599.238C281.578 602.371 285.278 601.242 286.559 600.717C286.537 594.624 287.19 587.102 287.876 579.151V579.148Z" fill="#150035"/>
<path d="M266.607 510.827C266.607 510.827 279.254 517.004 288.631 526.939C298.008 536.875 300 539.454 300 539.454C300 539.454 296.446 533.987 285.504 538.16C274.562 542.332 273.745 547.181 273.461 551.684C273.309 554.155 275.596 555.316 276.057 555.817C276.073 555.833 276.083 555.854 276.086 555.876C276.089 555.898 276.086 555.921 276.076 555.941C276.065 555.961 276.049 555.977 276.03 555.988C276.01 555.998 275.988 556.002 275.966 555.999C274.059 555.752 263.364 553.973 249.25 543.954C233.656 532.875 237.445 522.053 241.929 514.286C245.885 507.47 266.607 510.827 266.607 510.827Z" fill="#BC365E"/>
<path d="M275.96 556.921C273.92 556.662 263.008 554.871 248.647 544.913C232.4 533.662 236.522 522.228 241.039 514.62C245.253 507.514 265.881 510.685 266.758 510.825L266.986 510.895C267.115 510.959 279.984 517.165 289.445 526.932C296.893 534.629 299.723 537.846 300.612 538.898C300.755 539.045 300.885 539.204 301 539.372L299.656 540.324C299.656 540.324 299.557 540.196 299.323 539.926C298.311 538.877 294.613 536.1 285.983 539.318C274.908 543.438 274.6 548.136 274.373 551.919C274.283 553.336 275.243 554.184 276.219 554.932C276.403 555.067 276.579 555.213 276.745 555.37C276.88 555.509 276.967 555.686 276.996 555.877C277.025 556.068 276.993 556.262 276.905 556.434L276.526 557L275.96 556.921ZM296.265 536.517C294.521 534.626 291.958 531.901 288.245 528.064C279.455 518.984 267.632 513.036 266.377 512.421C260.624 511.531 245.475 510.378 242.469 515.462C237.931 523.11 234.639 533.218 249.601 543.59C260.596 551.213 269.453 553.929 273.733 554.874C273.012 554.027 272.648 552.939 272.718 551.834C273.025 546.807 274.256 541.954 285.399 537.806C288.555 536.63 291.14 536.201 293.235 536.201C294.253 536.189 295.27 536.299 296.262 536.526L296.265 536.517Z" fill="#150035"/>
<path d="M258.835 459.401C258.835 459.401 267.631 457.219 268.495 463.033C269.454 469.607 270.851 476.108 272.676 482.492C274.694 489.46 266.619 492.365 266.619 492.365C266.619 492.365 266.477 503.735 270.37 513.174C270.37 513.174 256.984 528.537 238.964 520.843L239.66 516.906C239.66 516.906 242.808 498.609 241.019 490.623C239.23 482.636 233.934 479.443 236.868 471.675C239.803 463.906 251.227 460.67 251.227 460.67L258.835 459.401Z" fill="#150035"/>
<path d="M238.515 521.818L237.891 521.559L238.712 517.016C238.743 516.837 241.833 498.977 240.091 491.32C239.467 488.586 238.415 486.463 237.398 484.411C235.525 480.627 233.911 477.359 235.94 472.084C239.014 464.094 250.488 460.823 251.065 460.666L258.709 459.416C259.212 459.295 264.237 458.181 267.267 460.193C267.866 460.587 268.372 461.104 268.749 461.709C269.126 462.314 269.366 462.993 269.452 463.699C270.414 470.169 271.814 476.568 273.644 482.852C275.323 488.552 270.688 492.111 267.573 493.425C267.608 495.786 267.96 505.224 271.287 513.143L271.487 513.618L271.144 514.007C271.031 514.133 262.092 524 249.052 524C245.427 523.986 241.842 523.244 238.515 521.818ZM265.888 492.87V492.293L266.437 492.098C266.749 491.99 273.812 489.416 272.021 483.337C270.17 476.98 268.753 470.509 267.779 463.965C267.728 463.488 267.571 463.028 267.32 462.618C267.07 462.208 266.731 461.858 266.328 461.591C263.831 459.931 259.115 461.042 259.068 461.054L251.424 462.289C251.315 462.32 240.279 465.461 237.504 472.68C235.734 477.281 237.132 480.105 238.899 483.682C239.907 485.722 241.053 488.034 241.708 490.959C243.531 498.934 240.46 516.556 240.344 517.306L239.76 520.543C255.288 526.629 267.33 515.485 269.508 513.285C265.791 503.999 265.882 493.311 265.888 492.87Z" fill="#150035"/>
<path d="M261.645 460.672C261.645 460.672 263.743 458.837 263.743 461.961C263.743 465.086 264 469.032 264 475.356C264 481.085 256.301 484.956 250.673 474.195C245.045 463.435 241 466.778 241 466.778L244.446 460.088L253.704 455L261.645 460.672Z" fill="white"/>
<path d="M250.353 474.712C247.513 469.16 245.222 467.604 243.796 467.277C243.512 467.191 243.213 467.167 242.919 467.207C242.626 467.246 242.343 467.348 242.09 467.507L239 470.124L244.344 459.503L254.113 454L261.871 459.657C262.132 459.478 262.431 459.366 262.742 459.329C263.053 459.293 263.369 459.333 263.662 459.446C264.747 459.955 264.747 461.489 264.747 461.988C264.747 463.28 264.79 464.713 264.839 466.388C264.912 468.764 265 471.73 265 475.47C265 478.531 263.129 481.142 260.451 481.824C259.993 481.942 259.524 482.001 259.052 482C255.914 482.019 252.742 479.395 250.353 474.712ZM262.398 461.347L261.913 461.778L253.991 455.989L245.56 460.738L243.156 465.511C243.452 465.512 243.747 465.544 244.037 465.605C246.63 466.146 249.235 468.946 251.782 473.924C254.153 478.568 257.23 480.909 260.036 480.209C261.98 479.712 263.339 477.776 263.339 475.495C263.339 471.771 263.251 468.83 263.181 466.466C263.129 464.766 263.086 463.324 263.086 462.01C263.09 461.676 263.055 461.343 262.98 461.017C262.761 461.081 262.558 461.194 262.386 461.347H262.398Z" fill="#150035"/>
<path d="M253.2 498C257.613 498 260.95 495.373 261 495.332L260.034 494C259.766 494.215 253.401 499.186 246.966 494L246 495.332C248.048 497.048 250.584 497.988 253.2 498Z" fill="#BC365E"/>
<path d="M269.5 544L270 542.439C269.844 542.391 254.29 537.414 250.506 529L249 529.666C253.085 538.753 268.832 543.79 269.5 544Z" fill="#150035"/>
<path d="M249.26 526L250.505 525.613C249.851 523.232 250.954 522.074 251 522.025L250.119 521C250.047 521.082 248.369 522.761 249.26 526Z" fill="#150035"/>
<path d="M257.624 477C258.052 477.001 258.472 476.867 258.837 476.613C262.07 474.376 260.765 465.055 260.607 464L259.11 464.291C259.646 467.829 259.826 473.906 258.042 475.159C257.912 475.245 257.765 475.294 257.614 475.3C257.464 475.306 257.314 475.27 257.179 475.194C254.723 474.181 251.258 467.024 250.438 464.275L249 464.821C249.713 467.244 253.373 475.453 256.657 476.808C256.967 476.936 257.295 477.001 257.624 477Z" fill="#150035"/>
<path d="M263.527 444.489C263.527 444.489 268.282 460.878 260.705 465.826C260.564 465.917 260.403 465.97 260.236 465.98C258.995 466.079 253.662 466.058 249.057 459.298C248.938 459.119 248.763 458.988 248.56 458.927C247.543 458.646 244.278 457.495 244.018 454.372C243.836 452.155 245.063 451.484 246.077 451.305C246.218 451.284 246.353 451.23 246.47 451.147C246.587 451.064 246.683 450.954 246.75 450.825C246.818 450.697 246.855 450.554 246.858 450.409C246.862 450.263 246.832 450.119 246.771 449.987L244.248 444.285C244.174 444.117 244.15 443.93 244.179 443.748C244.207 443.565 244.287 443.395 244.409 443.259L249.705 437.309C249.814 437.186 249.954 437.095 250.109 437.045C250.264 436.994 250.43 436.986 250.589 437.022L261.35 439.434C261.506 439.469 261.65 439.544 261.768 439.653C261.887 439.761 261.977 439.898 262.029 440.052L263.527 444.489Z" fill="white"/>
<path d="M248.253 459.824C247.105 459.511 243.329 458.18 243.021 454.474C242.839 452.286 243.852 450.819 245.791 450.475L245.883 450.316L243.326 444.553C243.183 444.233 243.136 443.878 243.191 443.531C243.245 443.184 243.399 442.861 243.633 442.602L249.017 436.587C249.226 436.353 249.492 436.18 249.788 436.084C250.084 435.988 250.4 435.974 250.703 436.042L261.645 438.481C261.94 438.549 262.214 438.692 262.44 438.896C262.666 439.101 262.838 439.36 262.938 439.651L264.455 444.141V444.175C264.658 444.875 269.38 461.413 261.239 466.687C260.981 466.855 260.686 466.955 260.38 466.978C260.214 466.978 260.008 467 259.764 467C257.644 467.006 252.658 466.234 248.253 459.824ZM261.3 440.126L250.254 437.722L244.852 443.862L247.413 449.628C247.523 449.878 247.575 450.15 247.565 450.424C247.556 450.697 247.485 450.965 247.358 451.207C247.231 451.448 247.051 451.657 246.832 451.817C246.613 451.977 246.361 452.084 246.096 452.129C245.009 452.32 244.575 453.002 244.686 454.318C244.898 456.935 247.804 457.939 248.687 458.183C249.081 458.294 249.423 458.543 249.654 458.886C254.129 465.421 259.284 465.371 260.368 465.258C267.342 460.728 263.073 445.291 262.895 444.653L261.3 440.126Z" fill="#150035"/>
<path d="M251.647 431.039C261.091 430.352 268.917 438.915 267.913 448.489C267.708 450.358 267.277 452.194 266.632 453.956C264.639 458.069 265.4 448.574 256.467 446.055L255.802 447.681C255.789 447.714 255.768 447.744 255.743 447.769C255.717 447.794 255.687 447.814 255.654 447.826C255.621 447.839 255.585 447.844 255.55 447.843C255.514 447.841 255.48 447.831 255.448 447.815L251.395 445.08C251.356 445.055 251.31 445.042 251.264 445.042C251.217 445.042 251.172 445.055 251.133 445.08C250.461 445.591 246.048 447.151 248.724 451.346C248.748 451.378 248.764 451.416 248.771 451.455C248.777 451.495 248.774 451.536 248.76 451.574C248.747 451.612 248.725 451.646 248.695 451.673C248.666 451.7 248.63 451.719 248.592 451.728C247.563 451.929 244.418 452.013 245.302 454.106C246.337 456.544 247.908 458.279 248.108 458.408C248.119 458.414 248.128 458.423 248.136 458.433L250.816 461.08C250.842 461.107 250.862 461.139 250.877 461.174C251.077 461.679 252.303 465.426 245.573 468.048C240.257 470.119 237.519 472.697 236.444 473.916C236.407 473.957 236.357 473.985 236.303 473.995C236.249 474.006 236.193 473.998 236.143 473.974C236.094 473.949 236.053 473.909 236.028 473.859C236.003 473.809 235.994 473.752 236.004 473.696C236.333 471.381 237.39 465.294 239.727 462.418C242.65 458.821 241.421 453.815 238.96 450.2C236.5 446.584 236.074 438.294 245.764 432.837C247.572 431.806 249.58 431.192 251.647 431.039Z" fill="#E33569"/>
<path d="M235.634 474.88C235.42 474.779 235.243 474.611 235.131 474.4C235.019 474.189 234.977 473.947 235.012 473.71C235.373 471.187 236.48 464.974 238.959 461.934C241.728 458.537 240.247 453.734 238.141 450.674C236.95 448.937 235.964 445.795 236.794 442.19C237.444 439.352 239.448 435.252 245.292 431.969C247.227 430.862 249.379 430.202 251.594 430.035C253.944 429.878 256.299 430.246 258.492 431.114C260.686 431.981 262.665 433.327 264.288 435.056C265.987 436.822 267.282 438.945 268.08 441.274C268.879 443.604 269.163 446.083 268.911 448.536C268.693 450.517 268.231 452.462 267.536 454.326C267.16 455.099 266.705 455.818 265.934 455.825C265.079 455.825 264.631 454.989 264.033 453.819C263.007 451.816 261.324 448.53 256.988 447.035L256.609 447.962C256.553 448.105 256.469 448.234 256.362 448.343C256.255 448.451 256.127 448.536 255.986 448.593C255.829 448.648 255.662 448.668 255.496 448.65C255.331 448.633 255.171 448.579 255.028 448.492L251.271 445.969L251.081 446.076C250.362 446.47 249.025 447.208 248.739 448.366C248.558 449.078 248.782 449.943 249.404 450.889C249.504 451.042 249.564 451.217 249.58 451.399C249.597 451.581 249.568 451.764 249.498 451.933C249.43 452.094 249.324 452.236 249.19 452.346C249.055 452.456 248.896 452.53 248.726 452.563C248.571 452.592 248.369 452.62 248.145 452.652C247.607 452.727 246.179 452.926 245.949 453.346C245.886 453.456 245.973 453.693 246.014 453.787C246.634 455.241 247.488 456.58 248.543 457.748L251.395 460.536L251.585 460.754L251.65 460.921C252.062 462.049 252.019 463.295 251.529 464.39C250.73 466.257 248.807 467.793 245.818 468.954C240.692 470.944 238.042 473.369 236.922 474.631C236.82 474.747 236.696 474.839 236.556 474.903C236.417 474.967 236.266 475 236.113 475C235.946 474.998 235.782 474.957 235.634 474.88ZM247.523 459.086C247.019 458.66 245.491 456.859 244.465 454.443C244.31 454.143 244.229 453.809 244.229 453.47C244.229 453.131 244.31 452.798 244.465 452.497C245.04 451.466 246.446 451.169 247.532 451.009C247.019 450.068 246.862 448.97 247.09 447.921C247.557 446.048 249.38 445.038 250.257 444.556C250.412 444.471 250.537 444.404 250.608 444.354C250.786 444.226 250.997 444.154 251.215 444.146C251.432 444.138 251.648 444.195 251.834 444.31L255.318 446.659L256.008 444.978L256.721 445.18C262.285 446.757 264.379 450.838 265.505 453.037C265.635 453.292 265.782 453.579 265.909 453.809C265.934 453.765 265.962 453.715 265.987 453.661C266.616 451.952 267.034 450.17 267.231 448.356C267.457 446.15 267.202 443.92 266.482 441.824C265.763 439.729 264.598 437.82 263.069 436.233C261.617 434.681 259.845 433.472 257.879 432.693C255.913 431.914 253.803 431.584 251.697 431.726C249.728 431.878 247.817 432.467 246.098 433.451C240.788 436.441 238.99 440.074 238.415 442.572C237.715 445.638 238.517 448.268 239.504 449.706C241.945 453.264 243.603 458.884 240.241 463.012C238.462 465.195 237.441 469.525 236.947 472.193C238.53 470.777 241.152 468.923 245.196 467.352C247.715 466.374 249.367 465.11 249.971 463.693C250.263 463.052 250.314 462.324 250.114 461.647L247.523 459.086Z" fill="#150035"/>
<path d="M259.379 459L260.791 458.442C261.006 458.358 261.206 458.217 261.38 458.026C261.553 457.835 261.697 457.599 261.803 457.33C261.908 457.062 261.973 456.768 261.993 456.465C262.013 456.163 261.989 455.857 261.921 455.568L261.092 452L259.786 452.565L260.618 456.133C260.63 456.185 260.634 456.241 260.63 456.295C260.627 456.35 260.615 456.403 260.595 456.452C260.556 456.548 260.49 456.62 260.412 456.653L259 457.208L259.379 459Z" fill="#150035"/>
<path d="M257.804 451.038C258.214 452.397 257.96 453.704 257.239 453.957C256.518 454.21 255.606 453.309 255.196 451.962C254.786 450.616 255.04 449.296 255.761 449.043C256.482 448.79 257.397 449.682 257.804 451.038Z" fill="#150035"/>
<path d="M249.725 456C249.817 456.001 249.909 455.991 250 455.97L249.775 454.525C249.727 454.525 249.324 454.582 248.947 454L248 454.918C248.202 455.244 248.462 455.511 248.76 455.698C249.059 455.886 249.389 455.989 249.725 456Z" fill="#150035"/>
<path d="M258.851 463C258.953 463 259.054 462.991 259.154 462.971C259.886 462.796 260.546 462.21 261 461.332L259.823 460.008L260.41 460.672L259.826 460C259.608 460.401 259.302 460.673 258.963 460.766C258.772 460.778 258.582 460.731 258.404 460.629C258.225 460.527 258.063 460.371 257.926 460.172L257 461.885C257.511 462.572 258.166 462.967 258.851 463Z" fill="#150035"/>
<path d="M266.316 451L268 450.847C268 450.691 266.275 435.228 252 436.03L252.104 437.643C264.77 436.913 266.263 450.423 266.316 451Z" fill="#150035"/>
<path d="M239.454 454L241.118 453.683C239.299 443.915 243.956 440.434 244 440.384L243.013 439C242.786 439.184 237.436 443.177 239.454 454Z" fill="#150035"/>
<path d="M236.522 474C238.022 469.172 240.228 467.123 243.05 465.531C245.787 463.99 246.147 461.242 245.958 460L244.367 460.306L245.163 460.155L244.367 460.299C244.367 460.394 244.649 462.604 242.326 463.913C239.58 465.464 236.792 467.685 235 473.398L236.522 474Z" fill="#150035"/>
<path d="M240.074 472.243C237.392 470.661 234.267 476.876 232.813 488.815C231.359 500.755 232.725 502.098 232.541 514.34C232.439 521.343 232.695 532.201 232.49 535.197C232.312 537.329 231.562 539.369 230.321 541.091L225.835 546.299C224.568 548.084 224.686 549.963 226.58 550.67C228.674 551.452 230.97 550.821 232.538 549.03L236.816 544.155L237.673 544.884C237.675 545.976 237.366 547.044 236.783 547.958C236.249 548.786 235.709 549.725 235.709 549.725C237.733 549.527 239.513 548.091 240.376 545.956C240.819 544.849 240.833 543.611 240.415 542.493L239.715 540.64C238.685 537.893 238.252 534.948 238.448 532.012C238.786 526.786 239.408 517.84 240.156 509.598C241.308 496.967 245.981 475.721 240.074 472.243Z" fill="white"/>
<path d="M226.156 551.606C224.837 551.122 224.327 550.247 224.13 549.599C223.795 548.492 224.109 547.195 225.052 545.877L229.571 540.709C230.744 539.107 231.454 537.207 231.621 535.222C231.735 533.596 231.707 529.471 231.676 525.1C231.652 521.359 231.627 517.491 231.676 514.321C231.747 509.622 231.587 506.539 231.446 503.818C231.222 499.476 231.04 496.042 231.962 488.619C233.133 479.13 235.451 472.654 238.156 471.292C238.533 471.09 238.956 470.989 239.383 471.001C239.81 471.012 240.227 471.135 240.594 471.357C245.742 474.35 243.975 487.465 242.253 500.152C241.789 503.589 241.35 506.84 241.089 509.668C240.354 517.619 239.736 526.285 239.349 532.154C239.16 534.979 239.58 537.812 240.578 540.458L241.291 542.319C241.793 543.64 241.776 545.104 241.245 546.413C240.249 548.839 238.171 550.486 235.805 550.713L234.191 550.865L235.015 549.456C235.015 549.456 235.574 548.495 236.13 547.648C236.543 547.007 236.797 546.275 236.871 545.514L233.109 549.742C232.508 550.441 231.767 551.004 230.934 551.394C230.102 551.783 229.197 551.989 228.28 552C227.554 551.995 226.836 551.862 226.156 551.606ZM238.568 544.617V545.011C238.572 546.177 238.262 547.323 237.67 548.324C238.599 547.702 239.318 546.809 239.733 545.765C240.102 544.852 240.113 543.832 239.764 542.911L239.051 541.05C237.962 538.178 237.503 535.102 237.704 532.033C238.095 526.14 238.712 517.473 239.447 509.504C239.711 506.638 240.154 503.372 240.621 499.916C242.109 488.917 243.96 475.228 239.773 472.793C239.642 472.712 239.491 472.669 239.336 472.669C239.182 472.669 239.031 472.712 238.9 472.793C237.145 473.674 234.827 478.978 233.607 488.833C232.706 496.126 232.881 499.491 233.103 503.753C233.247 506.498 233.41 509.613 233.336 514.371C233.29 517.522 233.315 521.378 233.336 525.11C233.37 529.704 233.395 533.671 233.278 535.346C233.08 537.669 232.245 539.89 230.865 541.761L226.346 546.928C225.765 547.735 225.532 548.535 225.71 549.118C225.792 549.343 225.927 549.545 226.102 549.707C226.278 549.869 226.489 549.986 226.718 550.049C228.538 550.719 230.518 550.173 231.892 548.628L236.779 543.135L238.568 544.617Z" fill="#150035"/>
<path d="M281.002 617L282.483 616.984C282.449 614.511 282.994 613.827 283 613.82L281.88 613C281.665 613.199 280.963 614.08 281.002 617Z" fill="#BC365E"/>
<path d="M293.538 622.999C294.405 623.017 295.259 622.795 296 622.359L295.091 621.061C295.037 621.096 293.732 621.903 291.678 621L291 622.426C291.793 622.792 292.659 622.987 293.538 622.999Z" fill="#BC365E"/>
<path d="M302.542 618.998C303.408 619.026 304.261 618.693 305 618.038L304.076 616.096C304.022 616.153 302.723 617.359 300.676 616L300 618.144C300.794 618.694 301.662 618.986 302.542 618.998Z" fill="#BC365E"/>
<path d="M265.582 491.386L262.846 492.574L263.508 494.1L266.244 492.911L265.582 491.386Z" fill="#BC365E"/>
<path d="M250.679 493L251 491.581C250.858 491.554 247.494 490.905 246.568 488L245 488.396C246.205 492.165 250.494 492.968 250.679 493Z" fill="#BC365E"/>
<path d="M248.11 521L248.952 520.643L248.53 520.82L248.952 520.646C248.952 520.623 248.717 518.173 249 511.142L248.144 511C247.847 518.366 248.101 520.897 248.11 521Z" fill="#BC365E"/>
<path d="M248.714 506.335L248.4 509.715L250.056 509.868L250.37 506.489L248.714 506.335Z" fill="#BC365E"/>
<path d="M235.956 500C236.168 493.844 236.993 491.648 237 491.628L235.169 491C235.128 491.095 234.227 493.408 234 499.943L235.956 500Z" fill="#150035"/>
<path d="M297.095 528.627L268.487 544.654C268.083 544.881 267.624 545 267.157 545C266.69 545 266.231 544.881 265.827 544.654L249.79 535.687C249.028 535.263 248.48 531.001 249.79 530.457L279.729 517L298.807 524.354C299.572 524.781 297.863 528.207 297.095 528.627Z" fill="#150035"/>
<path d="M267.096 546C266.481 546 265.878 545.843 265.346 545.544L249.202 536.472C248.157 535.886 247.955 533.341 248.008 532.271C248.111 530.587 248.76 529.969 249.29 529.747L279.742 516L299.289 523.567C299.517 523.679 299.705 523.854 299.831 524.071C299.957 524.287 300.015 524.535 299.997 524.783C299.997 526.087 298.609 528.805 297.673 529.343L268.855 545.538C268.32 545.839 267.714 545.998 267.096 546ZM279.783 517.748L249.948 531.213C249.892 531.252 249.739 531.493 249.667 532.085C249.518 533.35 249.873 534.87 250.104 535.147L266.169 544.155C266.454 544.315 266.776 544.399 267.105 544.399C267.434 544.399 267.756 544.315 268.041 544.155L296.843 527.948C297.289 527.619 298.275 525.695 298.356 524.908L279.783 517.748Z" fill="#150035"/>
<path d="M296.436 525.043L268.09 541.643C267.689 541.877 267.234 542 266.772 542C266.309 542 265.855 541.877 265.454 541.643L249.564 532.355C249.392 532.254 249.25 532.109 249.151 531.935C249.052 531.761 249 531.564 249 531.363C249 531.162 249.052 530.965 249.151 530.791C249.25 530.617 249.392 530.472 249.564 530.372L279.23 513L296.436 523.06C296.608 523.161 296.75 523.305 296.849 523.479C296.948 523.653 297 523.851 297 524.052C297 524.252 296.948 524.45 296.849 524.624C296.75 524.798 296.608 524.942 296.436 525.043Z" fill="white"/>
<path d="M266.717 543C266.109 543.001 265.511 542.84 264.984 542.533L248.994 533.18C248.692 533.008 248.441 532.757 248.267 532.454C248.092 532.151 248 531.807 248 531.456C248 531.105 248.092 530.76 248.267 530.457C248.441 530.154 248.692 529.904 248.994 529.732L279.274 512L297.009 522.369C297.31 522.542 297.56 522.792 297.734 523.095C297.908 523.398 298 523.742 298 524.093C298 524.443 297.908 524.788 297.734 525.091C297.56 525.393 297.31 525.644 297.009 525.817L268.46 542.536C267.929 542.844 267.328 543.004 266.717 543ZM279.258 513.925L249.8 531.183C249.749 531.209 249.706 531.249 249.676 531.299C249.645 531.348 249.629 531.405 249.629 531.464C249.629 531.522 249.645 531.579 249.676 531.628C249.706 531.678 249.749 531.718 249.8 531.744L265.802 541.097C266.084 541.262 266.404 541.349 266.729 541.349C267.055 541.349 267.374 541.262 267.656 541.097L296.197 524.381C296.248 524.355 296.291 524.315 296.322 524.266C296.352 524.216 296.368 524.159 296.368 524.101C296.368 524.042 296.352 523.985 296.322 523.936C296.291 523.886 296.248 523.846 296.197 523.82L279.258 513.925Z" fill="#150035"/>
<path d="M299 524.204L267 542V517.306C266.999 517.058 267.067 516.814 267.195 516.599C267.324 516.384 267.509 516.205 267.733 516.081L298.349 499.058C298.414 499.02 298.489 499 298.566 499C298.642 499 298.718 499.019 298.784 499.056C298.85 499.093 298.905 499.146 298.943 499.209C298.981 499.273 299.001 499.346 299 499.419V524.204Z" fill="#E33569"/>
<path d="M266 544V517.449C266.001 517.054 266.105 516.666 266.302 516.324C266.499 515.981 266.783 515.697 267.124 515.498L297.157 498.162C297.344 498.056 297.556 498 297.771 498C297.987 498 298.198 498.056 298.386 498.162C298.573 498.27 298.729 498.426 298.837 498.614C298.945 498.801 299.001 499.014 299 499.231V524.943L266 544ZM297.39 499.9L267.926 516.902C267.832 516.959 267.754 517.039 267.701 517.135C267.647 517.231 267.619 517.339 267.619 517.449V541.189L297.387 524.004L297.39 499.9Z" fill="#150035"/>
<path d="M284.123 523.235L280.877 524.905C280.392 525.152 280 524.905 280 524.31V521.252C280.005 520.96 280.086 520.673 280.239 520.415C280.391 520.156 280.61 519.933 280.877 519.764L284.123 518.096C284.605 517.846 285 518.096 285 518.692V521.752C284.994 522.043 284.911 522.329 284.759 522.586C284.607 522.843 284.389 523.066 284.123 523.235Z" fill="white"/>
<path d="M281.254 526C281.046 526.001 280.842 525.943 280.661 525.834C280.445 525.688 280.27 525.483 280.154 525.241C280.038 524.998 279.986 524.728 280.003 524.457V521.244C280.01 520.793 280.12 520.35 280.322 519.953C280.525 519.556 280.815 519.216 281.168 518.962L284.046 517.207C284.238 517.079 284.459 517.008 284.686 517.001C284.913 516.993 285.137 517.051 285.336 517.166C285.553 517.312 285.728 517.517 285.845 517.759C285.961 518.001 286.014 518.272 285.997 518.543V521.76C285.992 522.211 285.883 522.654 285.679 523.051C285.476 523.448 285.184 523.787 284.829 524.038L281.954 525.793C281.741 525.925 281.5 525.996 281.254 526ZM284.435 518.881L281.957 520.396C281.841 520.501 281.747 520.631 281.68 520.777C281.614 520.923 281.577 521.082 281.571 521.244V524.122L284.049 522.608C284.166 522.503 284.26 522.374 284.326 522.228C284.392 522.083 284.429 521.924 284.435 521.763V518.881Z" fill="#150035"/>
<path d="M305.203 191.557C303.876 191.557 302.436 190.93 301.091 189.76C298.644 187.631 297 184.225 297 181.29V146.537C297 144.28 297.952 142.665 299.614 142.096C301.732 141.367 304.445 142.647 306.541 145.337L330.786 176.693C333.043 179.61 333.921 183.35 332.926 185.808C332.7 186.425 332.308 186.969 331.793 187.379C331.279 187.79 330.662 188.051 330.009 188.134L305.761 191.503C305.577 191.534 305.39 191.552 305.203 191.557ZM300.861 144.244C300.679 144.244 299.479 146.504 299.333 146.555C298.429 146.862 299.333 145.852 299.333 146.555V181.29C299.333 183.558 300.682 186.318 302.615 188.003C303.621 188.878 304.653 189.312 305.436 189.209L329.685 185.841C329.93 185.811 330.162 185.709 330.35 185.549C330.539 185.389 330.676 185.177 330.746 184.94C331.322 183.536 330.873 180.678 328.923 178.151L304.674 146.796C303.274 144.962 301.834 144.225 300.861 144.225V144.244Z" fill="#9EDDFB"/>
<path d="M303.734 217.152C302.92 217.133 302.125 216.899 301.43 216.474C298.943 215.041 297 211.672 297 208.818C297 207.224 297.623 205.948 298.71 205.321C299.796 204.694 301.215 204.796 302.593 205.591C305.075 207.024 307.019 210.393 307.019 213.247C307.019 214.844 306.395 216.117 305.309 216.744C304.83 217.018 304.286 217.159 303.734 217.152ZM300.292 207.235C300.146 207.231 300.002 207.265 299.873 207.334C299.534 207.53 299.333 208.063 299.333 208.792C299.333 210.834 300.824 213.422 302.593 214.44C303.223 214.804 303.803 214.906 304.146 214.709C304.488 214.512 304.689 213.98 304.689 213.251C304.689 211.209 303.194 208.624 301.43 207.603C301.088 207.385 300.697 207.259 300.292 207.235Z" fill="#9EDDFB"/>
<path d="M303.734 232.064C302.92 232.043 302.125 231.809 301.43 231.386C298.943 229.953 297 226.584 297 223.73C297 222.133 297.623 220.86 298.71 220.233C299.796 219.606 301.215 219.704 302.593 220.503C305.075 221.936 307.019 225.305 307.019 228.159C307.019 229.753 306.395 231.029 305.309 231.656C304.829 231.928 304.286 232.069 303.734 232.064ZM300.292 222.144C300.147 222.139 300.002 222.171 299.873 222.238C299.534 222.435 299.333 222.989 299.333 223.719C299.333 225.76 300.824 228.345 302.593 229.366C303.223 229.731 303.803 229.833 304.146 229.636C304.488 229.439 304.689 228.889 304.689 228.159C304.689 226.118 303.194 223.529 301.43 222.508C301.087 222.293 300.696 222.167 300.292 222.144Z" fill="#9EDDFB"/>
<path d="M303.734 246.976C302.92 246.957 302.125 246.723 301.43 246.298C298.943 244.865 297 241.5 297 238.642C297 237.045 297.623 235.768 298.71 235.145C299.796 234.522 301.215 234.616 302.593 235.411C305.075 236.844 307.019 240.213 307.019 243.068C307.019 244.665 306.395 245.937 305.309 246.564C304.83 246.839 304.286 246.982 303.734 246.976ZM300.292 237.056C300.146 237.052 300.002 237.086 299.873 237.154C299.534 237.351 299.333 237.901 299.333 238.634C299.333 240.672 300.824 243.261 302.593 244.282C303.223 244.646 303.803 244.749 304.146 244.552C304.488 244.355 304.689 243.801 304.689 243.071C304.689 241.03 303.194 238.445 301.43 237.424C301.088 237.206 300.697 237.078 300.292 237.052V237.056Z" fill="#9EDDFB"/>
<path d="M303.734 261.885C302.92 261.865 302.125 261.631 301.43 261.206C298.943 259.774 297 256.405 297 253.55C297 251.957 297.623 250.681 298.71 250.053C299.796 249.426 301.215 249.528 302.593 250.323C305.075 251.756 307.019 255.121 307.019 257.98C307.019 259.577 306.395 260.853 305.309 261.48C304.829 261.752 304.285 261.892 303.734 261.885ZM300.292 251.964C300.146 251.96 300.002 251.994 299.873 252.062C299.534 252.259 299.333 252.792 299.333 253.521C299.333 255.562 300.824 258.151 302.593 259.168C303.223 259.533 303.803 259.635 304.146 259.438C304.488 259.241 304.689 258.691 304.689 257.958C304.689 255.92 303.194 253.331 301.43 252.314C301.086 252.102 300.695 251.982 300.292 251.964Z" fill="#9EDDFB"/>
<path d="M303.734 276.797C302.92 276.775 302.125 276.542 301.43 276.118C298.943 274.686 297 271.317 297 268.462C297 266.865 297.623 265.593 298.71 264.965C299.796 264.338 301.215 264.437 302.593 265.232C305.075 266.668 307.019 270.033 307.019 272.888C307.019 274.485 306.395 275.761 305.309 276.388C304.829 276.66 304.286 276.801 303.734 276.797ZM300.292 266.876C300.147 266.871 300.002 266.904 299.873 266.971C299.534 267.168 299.333 267.722 299.333 268.451C299.333 270.493 300.824 273.078 302.593 274.099C303.223 274.463 303.803 274.565 304.146 274.368C304.488 274.172 304.689 273.617 304.689 272.888C304.689 270.846 303.194 268.261 301.43 267.241C301.087 267.025 300.696 266.9 300.292 266.876Z" fill="#9EDDFB"/>
<path d="M303.734 291.88C302.92 291.859 302.125 291.625 301.43 291.202C298.943 289.769 297 286.4 297 283.545C297 281.948 297.623 280.676 298.71 280.049C299.796 279.422 301.215 279.52 302.593 280.315C305.075 281.751 307.019 285.117 307.019 287.971C307.019 289.568 306.395 290.844 305.309 291.472C304.829 291.744 304.286 291.885 303.734 291.88ZM300.292 281.956C300.147 281.951 300.004 281.985 299.877 282.054C299.534 282.251 299.333 282.805 299.333 283.534C299.333 285.576 300.824 288.161 302.593 289.182C303.223 289.547 303.803 289.649 304.146 289.452C304.488 289.255 304.689 288.701 304.689 287.971C304.689 285.93 303.194 283.345 301.43 282.324C301.087 282.107 300.696 281.981 300.292 281.956Z" fill="#9EDDFB"/>
<path d="M303.734 336.609C302.92 336.589 302.125 336.355 301.43 335.931C298.943 334.501 297 331.133 297 328.274C297 326.677 297.623 325.405 298.71 324.778C299.796 324.151 301.215 324.249 302.593 325.044C305.075 326.48 307.019 329.846 307.019 332.7C307.019 334.297 306.395 335.57 305.309 336.197C304.83 336.472 304.286 336.614 303.734 336.609ZM300.292 326.688C300.147 326.684 300.004 326.718 299.877 326.787C299.534 326.983 299.333 327.538 299.333 328.267C299.333 330.309 300.824 332.894 302.593 333.914C303.223 334.279 303.803 334.381 304.146 334.184C304.488 333.987 304.689 333.433 304.689 332.704C304.689 330.662 303.194 328.077 301.43 327.056C301.087 326.84 300.696 326.713 300.292 326.688Z" fill="#9EDDFB"/>
<path d="M644.772 610.598L634.929 604.907V599.865C631.955 597.192 629.427 594.062 627.44 590.593L623.641 590.936L619 578.977L622.941 578.612C622.626 577.064 622.46 575.489 622.445 573.909C622.442 572.345 622.651 570.787 623.065 569.279L619.19 564.455L624.356 557.127L628.366 562.136C630.273 561.21 632.504 560.969 634.929 561.433V556L644.772 561.691V566.752C647.746 569.424 650.275 572.553 652.265 576.02L656.064 575.681L660.701 587.64L656.76 588.004C657.075 589.553 657.242 591.128 657.259 592.708C657.262 594.272 657.053 595.83 656.636 597.338L660.522 602.118L655.364 609.457L651.353 604.448C649.439 605.374 647.211 605.614 644.791 605.151L644.772 610.598ZM637.258 603.576L642.454 606.577V602.118L643.956 602.574C646.686 603.401 649.129 603.201 650.999 601.994L651.885 601.425L655.243 605.607L657.609 602.242L654.069 597.83L654.244 597.243C654.705 595.769 654.939 594.234 654.941 592.689C654.901 590.838 654.656 588.996 654.211 587.199L653.923 585.901L657.409 585.587L654.525 578.153L650.97 578.47L650.606 577.807C648.611 574.16 645.987 570.895 642.855 568.163L642.446 567.798V563.033L637.251 560.036V564.488L635.749 564.032C633.018 563.212 630.583 563.409 628.705 564.612L627.823 565.181L624.461 560.999L622.095 564.364L625.639 568.775L625.46 569.362C625.002 570.836 624.769 572.37 624.768 573.913C624.806 575.766 625.051 577.608 625.497 579.407L625.785 580.705L622.299 581.015L625.187 588.453L628.742 588.136L629.106 588.799C631.103 592.443 633.727 595.707 636.857 598.439L637.266 598.804L637.258 603.576ZM642.88 593.171C642.308 593.167 641.74 593.081 641.192 592.915C635.559 591.227 630.86 583.071 632.22 577.365C632.338 576.681 632.605 576.03 633.002 575.46C633.399 574.89 633.916 574.414 634.518 574.066C635.119 573.718 635.79 573.507 636.482 573.447C637.174 573.387 637.871 573.48 638.523 573.719C644.164 575.407 648.859 583.564 647.503 589.273C647.367 589.949 647.093 590.59 646.697 591.155C646.301 591.72 645.792 592.196 645.203 592.555C644.495 592.957 643.694 593.163 642.88 593.152V593.171ZM641.859 590.68C642.207 590.828 642.584 590.892 642.961 590.869C643.337 590.846 643.704 590.736 644.03 590.547C644.357 590.358 644.636 590.096 644.844 589.782C645.053 589.467 645.186 589.108 645.232 588.734C646.282 584.304 642.213 577.256 637.853 575.973C637.502 575.843 637.128 575.788 636.754 575.81C636.381 575.833 636.016 575.933 635.683 576.104C635.369 576.309 635.099 576.577 634.892 576.89C634.685 577.204 634.545 577.557 634.48 577.927C633.43 582.357 637.499 589.401 641.859 590.688V590.68Z" fill="#9EDDFB"/>
<path d="M694.048 536.237C693.233 536.218 692.439 535.984 691.744 535.559C689.261 534.13 687.318 530.761 687.318 527.903C687.318 526.306 687.937 525.03 689.024 524.406C690.11 523.783 691.529 523.881 692.91 524.672C695.39 526.109 697.333 529.478 697.333 532.329C697.333 533.926 696.709 535.202 695.623 535.825C695.144 536.101 694.6 536.243 694.048 536.237ZM690.61 526.317C690.463 526.312 690.317 526.346 690.187 526.415C689.848 526.612 689.647 527.163 689.647 527.895C689.647 529.937 691.139 532.522 692.929 533.539C693.559 533.904 694.139 534.006 694.478 533.813C694.817 533.62 695.021 533.062 695.021 532.333C695.021 530.294 693.526 527.706 691.762 526.685C691.416 526.465 691.019 526.338 690.61 526.317Z" fill="#9EDDFB"/>
<path d="M694.048 551.149C693.234 551.128 692.439 550.894 691.744 550.471C689.261 549.042 687.318 545.673 687.318 542.815C687.318 541.221 687.937 539.945 689.024 539.318C690.11 538.691 691.529 538.793 692.91 539.584C695.39 541.021 697.333 544.39 697.333 547.241C697.333 548.838 696.709 550.11 695.623 550.737C695.144 551.012 694.6 551.155 694.048 551.149ZM690.61 541.229C690.463 541.223 690.316 541.257 690.187 541.327C689.848 541.524 689.647 542.056 689.647 542.786C689.647 544.827 691.139 547.416 692.929 548.433C693.559 548.798 694.139 548.9 694.478 548.703C694.817 548.506 695.021 547.974 695.021 547.245C695.021 545.206 693.526 542.618 691.762 541.593C691.415 541.377 691.018 541.253 690.61 541.232V541.229Z" fill="#9EDDFB"/>
<path d="M694.048 566.233C693.234 566.212 692.439 565.978 691.744 565.555C689.261 564.125 687.318 560.757 687.318 557.898C687.318 556.305 687.937 555.029 689.024 554.405C690.11 553.782 691.529 553.877 692.91 554.671C695.39 556.104 697.333 559.47 697.333 562.328C697.333 563.929 696.709 565.201 695.623 565.828C695.143 566.101 694.599 566.24 694.048 566.233ZM690.606 556.312C690.46 556.308 690.316 556.342 690.187 556.411C689.848 556.607 689.647 557.14 689.647 557.869C689.647 559.914 691.139 562.499 692.929 563.517C693.559 563.881 694.139 563.983 694.478 563.786C694.817 563.59 695.021 563.039 695.021 562.306C695.021 560.264 693.526 557.679 691.762 556.659C691.412 556.447 691.015 556.327 690.606 556.312Z" fill="#9EDDFB"/>
<path d="M694.048 581.141C693.233 581.122 692.439 580.888 691.744 580.463C689.261 579.034 687.318 575.665 687.318 572.806C687.318 571.209 687.937 569.937 689.024 569.31C690.11 568.683 691.529 568.785 692.91 569.576C695.39 571.013 697.333 574.378 697.333 577.233C697.333 578.83 696.709 580.106 695.623 580.733C695.144 581.007 694.6 581.148 694.048 581.141ZM690.606 571.22C690.46 571.217 690.316 571.251 690.187 571.319C689.848 571.519 689.647 572.07 689.647 572.799C689.647 574.841 691.139 577.426 692.929 578.447C693.559 578.811 694.139 578.913 694.478 578.717C694.817 578.52 695.021 577.965 695.021 577.236C695.021 575.195 693.526 572.61 691.762 571.589C691.414 571.369 691.017 571.243 690.606 571.22Z" fill="#9EDDFB"/>
<path d="M694.048 596.053C693.233 596.034 692.439 595.8 691.744 595.375C689.261 593.946 687.318 590.577 687.318 587.718C687.318 586.122 687.937 584.845 689.024 584.222C690.11 583.599 691.529 583.697 692.91 584.488C695.39 585.921 697.333 589.29 697.333 592.145C697.333 593.742 696.709 595.018 695.623 595.641C695.144 595.916 694.6 596.058 694.048 596.053ZM690.606 586.132C690.46 586.129 690.316 586.163 690.187 586.231C689.848 586.428 689.647 586.96 689.647 587.711C689.647 589.753 691.139 592.338 692.929 593.355C693.559 593.72 694.139 593.822 694.478 593.625C694.817 593.428 695.021 592.896 695.021 592.167C695.021 590.125 693.526 587.536 691.762 586.519C691.417 586.292 691.019 586.158 690.606 586.132Z" fill="#9EDDFB"/>
<path d="M694.048 610.965C693.234 610.944 692.439 610.71 691.744 610.287C689.261 608.858 687.318 605.485 687.318 602.631C687.318 601.037 687.937 599.761 689.024 599.134C690.11 598.507 691.529 598.609 692.91 599.4C695.39 600.837 697.333 604.202 697.333 607.057C697.333 608.657 696.709 609.93 695.623 610.557C695.144 610.831 694.6 610.972 694.048 610.965ZM690.606 601.045C690.46 601.039 690.315 601.073 690.187 601.143C689.848 601.34 689.647 601.872 689.647 602.601C689.647 604.643 691.139 607.232 692.929 608.249C693.559 608.614 694.139 608.716 694.478 608.519C694.817 608.322 695.021 607.79 695.021 607.039C695.021 604.997 693.526 602.412 691.762 601.391C691.412 601.179 691.015 601.06 690.606 601.045Z" fill="#9EDDFB"/>
<path d="M797.502 395.032L748.378 395.105C748.11 395.105 747.853 395.211 747.663 395.401C747.474 395.59 747.368 395.847 747.368 396.115L747.386 411.275C747.495 412.773 748.615 414.326 750.74 415.555L765.524 424.09C769.618 426.453 775.809 426.712 779.356 424.663L796.127 414.983C797.83 413.998 798.592 412.66 798.49 411.275V396.042C798.49 395.778 798.386 395.524 798.202 395.335C798.017 395.146 797.766 395.038 797.502 395.032Z" fill="#BC365E"/>
<path d="M773.348 427.565C770.354 427.588 767.404 426.842 764.78 425.399L749.996 416.867C748.071 415.752 746.763 414.341 746.194 412.791H745.887L745.869 411.278V396.118C745.869 395.448 746.135 394.805 746.609 394.332C747.083 393.858 747.726 393.592 748.396 393.592L797.513 393.515C798.178 393.535 798.813 393.794 799.303 394.244C799.537 394.479 799.722 394.759 799.847 395.066C799.972 395.373 800.035 395.703 800.032 396.034V412.784H799.853C799.463 414.166 798.446 415.394 796.9 416.284L780.129 425.968C778.281 427.04 775.867 427.565 773.348 427.565ZM748.899 411.045V411.165C748.972 412.212 749.923 413.331 751.498 414.242L766.282 422.778C769.888 424.856 775.532 425.126 778.598 423.354L795.369 413.67C796.145 413.221 797.057 412.463 796.977 411.384L796.86 409.758H796.988V396.548L748.863 396.621L748.899 411.045Z" fill="#150035"/>
<path d="M797.502 395.076L774.897 395.112V425.993C776.463 425.88 777.988 425.44 779.374 424.703L796.145 415.019C797.848 414.035 798.61 412.697 798.508 411.315V396.096C798.509 395.963 798.484 395.831 798.433 395.708C798.383 395.585 798.31 395.472 798.216 395.378C798.123 395.283 798.011 395.207 797.889 395.155C797.766 395.104 797.635 395.076 797.502 395.076Z" fill="#150035"/>
<path d="M796.138 398.813L779.367 408.496C775.82 410.542 769.629 410.287 765.535 407.92L750.755 399.378C746.66 397.015 746.216 393.439 749.763 391.393L766.534 381.709C770.078 379.664 776.268 379.919 780.363 382.286L795.146 390.821C799.241 393.18 799.685 396.767 796.138 398.813Z" fill="white"/>
<path d="M773.348 411.409C770.354 411.432 767.404 410.687 764.78 409.244L749.996 400.709C747.364 399.188 745.851 397.063 745.851 394.875C745.851 392.968 746.974 391.269 749.005 390.095L765.776 380.415C769.786 378.093 776.534 378.337 781.121 380.988L795.905 389.523C798.537 391.043 800.046 393.169 800.046 395.356C800.046 397.263 798.927 398.962 796.896 400.132L780.126 409.82C778.281 410.874 775.867 411.409 773.348 411.409ZM772.52 381.877C770.537 381.877 768.659 382.242 767.292 383.051L750.521 392.731C749.792 393.165 748.884 393.891 748.884 394.89C748.884 395.947 749.869 397.146 751.517 398.094L766.3 406.633C769.906 408.715 775.55 408.978 778.616 407.206L795.387 397.522C796.116 397.092 797.024 396.366 797.024 395.367C797.024 394.31 796.043 393.114 794.395 392.162L779.611 383.624C777.438 382.446 775.003 381.838 772.531 381.855L772.52 381.877Z" fill="#150035"/>
<path d="M768.641 408.708H765.608V424.801H768.641V408.708Z" fill="#150035"/>
<path d="M793.929 404.628H791.599V412.529H793.929V404.628Z" fill="#BC365E"/>
<path d="M795.172 330.385L801.3 323.771C801.305 323.767 801.309 323.761 801.312 323.756C801.314 323.75 801.316 323.743 801.316 323.737C801.316 323.73 801.314 323.724 801.312 323.718C801.309 323.712 801.305 323.706 801.3 323.702L788.967 317.001L788.285 316.786L758.134 313.118C754.098 312.626 748.877 318.127 748.87 322.878L748.819 360.3C748.819 361.908 749.446 362.965 750.397 363.538L762.618 370.345C762.627 370.351 762.637 370.355 762.647 370.355C762.658 370.355 762.668 370.351 762.677 370.345L768.51 360.092C768.513 360.087 768.515 360.081 768.516 360.075C768.517 360.069 768.516 360.063 768.514 360.057C768.513 360.052 768.51 360.046 768.506 360.042C768.502 360.037 768.497 360.033 768.492 360.03L761.765 356.822C761.759 356.818 761.754 356.813 761.751 356.807C761.747 356.801 761.745 356.794 761.745 356.787C761.745 356.78 761.747 356.773 761.751 356.767C761.754 356.761 761.759 356.756 761.765 356.753L787.315 328.205C787.322 328.201 787.329 328.198 787.337 328.198C787.345 328.198 787.352 328.201 787.359 328.205L795.168 330.425C795.172 330.419 795.174 330.412 795.174 330.406C795.175 330.399 795.174 330.392 795.172 330.385Z" fill="#BC365E"/>
<path d="M763.242 372.398L761.871 371.668L749.646 364.861C748.111 363.935 747.291 362.309 747.295 360.297L747.342 322.874C747.342 319.892 749.041 316.549 751.754 314.146C753.89 312.257 756.202 311.353 758.316 311.594L789.667 315.67L802.646 322.721L802.916 324.18L802.42 324.763L795.653 332.088L794.702 331.84L787.775 329.871L764.149 356.272L769.677 358.908L770.121 360.154L769.811 360.767L763.242 372.398ZM757.616 314.616C756.482 314.616 755.064 315.276 753.763 316.439C751.739 318.229 750.379 320.814 750.376 322.907L750.325 360.326C750.325 361.274 750.609 361.926 751.167 362.265L762.068 368.336L766.388 360.731L760.405 357.879L760.081 356.388L760.566 355.79L786.779 326.499L787.734 326.746L794.661 328.719L798.887 324.158L787.95 318.295L757.944 314.649C757.836 314.628 757.726 314.612 757.616 314.602V314.616Z" fill="#150035"/>
<path d="M760.77 366.929L760.821 329.506C760.821 324.767 766.049 319.254 770.085 319.746L800.24 323.399C804.057 323.866 804.049 329.423 800.24 333.696L770.03 367.45C765.969 371.964 760.762 371.668 760.77 366.929Z" fill="white"/>
<path d="M764.146 372.183C763.503 372.187 762.866 372.073 762.265 371.847C760.354 371.118 759.257 369.317 759.26 366.914L759.311 329.492C759.311 326.509 761.007 323.162 763.719 320.741C765.856 318.853 768.175 317.945 770.282 318.189L800.436 321.861C801.289 321.946 802.099 322.271 802.774 322.798C803.45 323.325 803.961 324.033 804.25 324.84C805.3 327.625 804.141 331.577 801.37 334.684L771.164 368.434C769.013 370.848 766.428 372.183 764.146 372.183ZM762.286 366.929C762.286 368.052 762.651 368.752 763.34 369.029C764.54 369.488 766.833 368.748 768.893 366.447L799.098 332.697C801.337 330.199 801.949 327.414 801.399 325.952C801.307 325.664 801.129 325.411 800.891 325.226C800.652 325.041 800.362 324.933 800.061 324.916L769.903 321.245C768.685 321.11 767.154 321.777 765.721 323.042C763.701 324.832 762.338 327.417 762.334 329.506L762.286 366.929Z" fill="#150035"/>
<path d="M749.582 352.916L748.105 355.562L761.218 362.881L762.695 360.236L749.582 352.916Z" fill="#150035"/>
<path d="M751.807 325.707L750.322 328.343L760.702 334.189L762.186 331.553L751.807 325.707Z" fill="#150035"/>
<path d="M756.382 312.085L754.894 314.724L766.757 321.414L768.245 318.775L756.382 312.085Z" fill="#150035"/>
<path d="M723.251 250.196L717.195 246.699L718.358 244.679L724.417 248.176L723.251 250.196ZM730.473 247.694L729.306 245.675L735.362 242.178L736.525 244.198L730.473 247.694ZM711.15 243.203L705.083 239.706L706.25 237.686L712.306 241.183L711.15 243.203ZM742.595 240.698L741.429 238.678L747.484 235.181L748.651 237.201L742.595 240.698ZM703.625 236.21L702.462 234.19L708.518 230.693L709.684 232.713L703.625 236.21ZM744.852 235.692L738.796 232.195L739.963 230.179L746.019 233.676L744.852 235.692ZM715.736 229.217L714.573 227.197L720.629 223.7L721.796 225.72L715.736 229.217ZM732.741 228.699L726.685 225.202L727.852 223.183L733.907 226.683L732.741 228.699Z" fill="#9EDDFB"/>
<path d="M235.671 377.035L229.616 373.539L230.779 371.519L236.834 375.015L235.671 377.035ZM242.894 374.53L241.727 372.511L247.783 369.014L248.946 371.034L242.894 374.53ZM223.571 370.042L217.515 366.546L218.682 364.526L224.737 368.022L223.571 370.042ZM255.02 367.538L253.853 365.518L259.909 362.021L261.075 364.041L255.02 367.538ZM216.064 363.049L214.897 361.029L220.957 357.533L222.123 359.553L216.064 363.049ZM257.295 362.532L251.235 359.035L252.402 357.015L258.458 360.512L257.295 362.532ZM228.175 356.056L227.012 354.036L233.068 350.54L234.235 352.56L228.175 356.056ZM245.18 355.539L239.124 352.042L240.291 350.022L246.346 353.519L245.18 355.539Z" fill="#9EDDFB"/>
<path d="M652.767 796.002L646.711 792.506L647.874 790.489L653.93 793.986L652.767 796.002ZM659.989 793.505L658.822 791.485L664.878 787.988L666.041 790.008L659.989 793.505ZM640.666 789.013L634.61 785.516L635.777 783.5L641.833 786.997L640.666 789.013ZM672.115 786.512L670.948 784.492L677.004 780.995L678.171 783.015L672.115 786.512ZM633.167 782.02L632 780.004L638.056 776.507L639.222 778.523L633.167 782.02ZM674.397 781.509L668.338 778.013L669.505 775.993L675.564 779.493L674.397 781.509ZM645.282 775.03L644.119 773.011L650.171 769.514L651.338 771.534L645.282 775.03ZM662.286 774.516L656.23 771.02L657.393 769L663.449 772.497L662.286 774.516Z" fill="#9EDDFB"/>
<path d="M212.767 675.002L206.711 671.506L207.874 669.489L213.93 672.986L212.767 675.002ZM219.989 672.505L218.822 670.485L224.878 666.988L226.041 669.008L219.989 672.505ZM200.666 668.013L194.61 664.516L195.777 662.5L201.833 665.997L200.666 668.013ZM232.115 665.512L230.948 663.492L237.004 659.995L238.171 662.015L232.115 665.512ZM193.167 661.02L192 659.004L198.056 655.507L199.222 657.523L193.167 661.02ZM234.397 660.509L228.338 657.013L229.505 654.993L235.564 658.493L234.397 660.509ZM205.282 654.03L204.119 652.011L210.171 648.514L211.338 650.534L205.282 654.03ZM222.286 653.516L216.23 650.02L217.393 648L223.449 651.497L222.286 653.516Z" fill="#9EDDFB"/>
<defs>
<linearGradient id="paint0_linear_130_3669" x1="860" y1="0" x2="-56.5" y2="0" gradientUnits="userSpaceOnUse">
<stop offset="0.619792" stop-color="#9EDDFB"/>
<stop offset="1" stop-color="#9EDDFB" stop-opacity="0"/>
</linearGradient>
</defs>
</svg>
