<svg width="151" height="192" viewBox="0 0 151 192" fill="none" xmlns="http://www.w3.org/2000/svg">
<mask id="path-1-inside-1_41_1999" fill="white">
<path fill-rule="evenodd" clip-rule="evenodd" d="M151 16.5V183C151 187.971 146.971 192 142 192H9C4.02944 192 0 187.971 0 183V21C0 16.0294 4.02944 12 9 12H134.246L151 0V12V16.5Z"/>
</mask>
<path fill-rule="evenodd" clip-rule="evenodd" d="M151 16.5V183C151 187.971 146.971 192 142 192H9C4.02944 192 0 187.971 0 183V21C0 16.0294 4.02944 12 9 12H134.246L151 0V12V16.5Z" fill="white"/>
<path d="M134.246 12V14H134.889L135.411 13.626L134.246 12ZM151 0H153V-3.89261L149.835 -1.62595L151 0ZM149 16.5V183H153V16.5H149ZM149 183C149 186.866 145.866 190 142 190V194C148.075 194 153 189.075 153 183H149ZM142 190H9V194H142V190ZM9 190C5.13401 190 2 186.866 2 183H-2C-2 189.075 2.92487 194 9 194V190ZM2 183V21H-2V183H2ZM2 21C2 17.134 5.13401 14 9 14V10C2.92487 10 -2 14.9249 -2 21H2ZM9 14H134.246V10H9V14ZM135.411 13.626L152.165 1.62595L149.835 -1.62595L133.082 10.374L135.411 13.626ZM149 0V12H153V0H149ZM149 12V16.5H153V12H149Z" fill="#D3D3D3" mask="url(#path-1-inside-1_41_1999)"/>
</svg>
