<svg width="102" height="76" viewBox="0 0 102 76" fill="none" xmlns="http://www.w3.org/2000/svg">
<path d="M18.1414 75.9998C14.4926 75.8557 11.7415 74.826 9.88801 72.911C8.0345 70.9959 7.10771 67.8436 7.10771 63.4541V50.6099C7.10771 43.7904 4.86534 40.0478 0.380615 39.3821V36.6176C4.86877 35.9861 7.11113 32.4889 7.10771 26.1259V12.5661C7.10771 8.1903 8.0345 5.038 9.88801 3.10922C11.7415 1.18043 14.4926 0.150833 18.1414 0.0204163V3.64975C15.6129 3.7939 13.8314 4.61413 12.7967 6.11048C11.762 7.60685 11.2481 10.1808 11.255 13.8325V26.4863C11.255 32.8733 9.17187 36.7016 5.00581 37.9715V38.1465C9.17187 39.4679 11.255 43.5124 11.255 50.2804V62.198C11.255 65.8531 11.7688 68.4271 12.7967 69.92C13.8245 71.4129 15.6061 72.2332 18.1414 72.3807V75.9998Z" fill="#03224E"/>
<path d="M21.5179 5.27658H24.6835L28.4556 12.108H28.6047L32.3716 5.27658H35.527L29.9202 14.9548V20.7155H27.1349V14.9548L21.5179 5.27658Z" fill="#03224E"/>
<path d="M40.2754 20.9423C39.2475 20.9669 38.2326 20.7087 37.341 20.1958C36.5134 19.6982 35.8462 18.9727 35.419 18.1057C34.9686 17.1212 34.7354 16.051 34.7354 14.968C34.7354 13.885 34.9686 12.8148 35.419 11.8303C35.8433 10.96 36.5111 10.232 37.341 9.73507C38.2422 9.24662 39.2507 8.99088 40.2754 8.99088C41.3001 8.99088 42.3086 9.24662 43.2098 9.73507C44.0386 10.2333 44.7061 10.9609 45.1319 11.8303C45.5789 12.8157 45.8103 13.8856 45.8103 14.968C45.8103 16.0504 45.5789 17.1203 45.1319 18.1057C44.7029 18.9715 44.0361 19.6966 43.2098 20.1958C42.3176 20.7073 41.3031 20.9654 40.2754 20.9423ZM40.2754 18.7544C40.8344 18.7743 41.3819 18.5915 41.8172 18.2395C42.2452 17.8769 42.5652 17.4031 42.7422 16.8702C43.1466 15.6239 43.1466 14.2812 42.7422 13.0349C42.5641 12.4997 42.2444 12.0229 41.8172 11.6553C41.3819 11.3033 40.8344 11.1205 40.2754 11.1405C39.7171 11.1255 39.1713 11.3077 38.7337 11.6553C38.3033 12.0201 37.9829 12.4978 37.8087 13.0349C37.3974 14.2802 37.3974 15.625 37.8087 16.8702C37.9816 17.405 38.3024 17.8798 38.7337 18.2395C39.1755 18.5905 39.7272 18.773 40.2908 18.7544H40.2754Z" fill="#03224E"/>
<path d="M55.4823 15.8457V9.15329H58.206V20.7311H55.5646V18.6719H55.4412C55.1815 19.3175 54.7361 19.8712 54.1615 20.2627C53.5113 20.6907 52.7448 20.9065 51.9672 20.8804C51.2649 20.894 50.5721 20.716 49.9629 20.3656C49.3737 20.0157 48.9002 19.5002 48.601 18.883C48.2581 18.1437 48.091 17.3349 48.1129 16.52V9.13779H50.8366V16.0876C50.8033 16.7255 51.0189 17.3513 51.4378 17.8328C51.6397 18.0484 51.8856 18.2179 52.1588 18.3298C52.4319 18.4418 52.7258 18.4935 53.0207 18.4815C53.4276 18.4801 53.828 18.3794 54.1873 18.188C54.5694 17.9843 54.8905 17.6822 55.1174 17.3129C55.3738 16.8677 55.5002 16.3593 55.4823 15.8457Z" fill="#03224E"/>
<path d="M61.0015 20.7157V9.13779H63.643V11.0683H63.7663C63.9456 10.4467 64.3273 9.90303 64.8507 9.52394C65.3657 9.15952 65.983 8.96846 66.6134 8.97826H67.1273C67.2859 8.9883 67.4437 9.00722 67.6001 9.03488V11.5471C67.4225 11.4934 67.24 11.4572 67.0554 11.439C66.8171 11.4046 66.5767 11.3874 66.3359 11.3875C65.8708 11.38 65.4114 11.4898 64.9998 11.7067C64.6154 11.912 64.2938 12.2181 64.0696 12.5921C63.839 12.9886 63.7216 13.441 63.7303 13.8997V20.7054L61.0015 20.7157Z" fill="#03224E"/>
<path d="M27.7925 46.1829H22.5712V30.7388H27.8953C29.2683 30.6991 30.6282 31.0165 31.8421 31.6603C32.9352 32.2682 33.8199 33.1923 34.3809 34.3115C34.967 35.6115 35.2702 37.0215 35.2702 38.448C35.2702 39.8743 34.967 41.2844 34.3809 42.5844C33.8129 43.7116 32.9169 44.6396 31.8113 45.2459C30.5734 45.8966 29.19 46.2191 27.7925 46.1829ZM25.3617 43.7632H27.6538C28.5853 43.7966 29.51 43.5929 30.3415 43.1713C31.0626 42.7775 31.6322 42.1545 31.9603 41.4003C32.6799 39.5016 32.6799 37.4046 31.9603 35.5059C31.633 34.7617 31.0717 34.1452 30.3621 33.7504C29.5521 33.3363 28.65 33.136 27.7411 33.1686H25.3617V43.7632Z" fill="#03224E"/>
<path d="M42.912 46.4091C41.8668 46.4365 40.8331 46.186 39.9159 45.6832C39.0814 45.2033 38.4073 44.4868 37.9785 43.624C37.5296 42.6355 37.2974 41.5621 37.2974 40.476C37.2974 39.3901 37.5296 38.3166 37.9785 37.328C38.4034 36.459 39.0642 35.7275 39.8851 35.2173C40.7559 34.6985 41.7552 34.4361 42.7681 34.4606C43.4563 34.4561 44.14 34.5729 44.7878 34.8055C45.4188 35.032 45.9938 35.3919 46.4734 35.8608C46.986 36.3763 47.379 36.9986 47.6246 37.6832C47.924 38.5252 48.0668 39.4151 48.046 40.3087V41.1479H38.5592V39.3049H45.4199C45.4228 38.8197 45.3082 38.3409 45.0859 37.9098C44.8726 37.5078 44.5525 37.1728 44.1608 36.9419C43.7451 36.6986 43.2701 36.5756 42.7887 36.5867C42.2705 36.5769 41.7604 36.7163 41.3189 36.9883C40.9111 37.244 40.5736 37.598 40.3373 38.0179C40.1056 38.4593 39.9838 38.9503 39.9828 39.449V41.05C39.966 41.648 40.0928 42.2413 40.3527 42.7798C40.5763 43.2426 40.9347 43.6267 41.3806 43.8814C41.8517 44.1432 42.3837 44.2746 42.9223 44.2624C43.2874 44.2674 43.6506 44.21 43.9964 44.0926C44.309 43.9826 44.5946 43.8071 44.834 43.5777C45.0666 43.3467 45.2426 43.0647 45.348 42.754L47.9175 43.0424C47.7645 43.6967 47.4499 44.302 47.0027 44.8029C46.5275 45.319 45.9378 45.7158 45.2811 45.9612C44.5259 46.256 43.7226 46.4079 42.912 46.4091Z" fill="#03224E"/>
<path d="M60.3386 34.6049L56.2273 46.1827H53.221L49.1097 34.6049H52.0133L54.6701 43.2071H54.7884L57.4556 34.6049H60.3386Z" fill="#03224E"/>
<path d="M76.1107 38.466C76.1529 39.9433 75.8336 41.4085 75.1805 42.7337C74.6147 43.8635 73.7372 44.8069 72.6521 45.4519C71.5446 46.0713 70.2973 46.3966 69.029 46.3966C67.7606 46.3966 66.5133 46.0713 65.4059 45.4519C64.3239 44.8031 63.4473 43.8607 62.8774 42.7337C62.2689 41.3945 61.954 39.94 61.954 38.4686C61.954 36.9972 62.2689 35.5428 62.8774 34.2035C63.4473 33.0766 64.3239 32.1342 65.4059 31.4854C66.5137 30.8673 67.7608 30.5429 69.029 30.5429C70.297 30.5429 71.5442 30.8673 72.6521 31.4854C73.7372 32.1304 74.6147 33.0738 75.1805 34.2035C75.8333 35.527 76.1529 36.9904 76.1107 38.466ZM73.3047 38.466C73.3357 37.4501 73.15 36.4391 72.76 35.5008C72.4471 34.7544 71.9216 34.1169 71.2491 33.6681C70.5799 33.2609 69.8119 33.0455 69.029 33.0455C68.246 33.0455 67.478 33.2609 66.8089 33.6681C66.1382 34.1177 65.6145 34.7551 65.3031 35.5008C64.5767 37.4107 64.5767 39.5214 65.3031 41.4313C65.6145 42.177 66.1382 42.8144 66.8089 43.264C67.478 43.6713 68.246 43.8866 69.029 43.8866C69.8119 43.8866 70.5799 43.6713 71.2491 43.264C71.9216 42.8151 72.4471 42.1776 72.76 41.4313C73.1491 40.4926 73.3348 39.4819 73.3047 38.466Z" fill="#03224E"/>
<path d="M78.6443 50.5224V34.6048H81.3214V36.5198H81.4813C81.6472 36.1992 81.8474 35.8973 82.0773 35.6189C82.3582 35.2765 82.7083 34.9975 83.1049 34.8004C83.6255 34.5512 84.1987 34.4328 84.7749 34.4554C85.6298 34.4444 86.4686 34.6823 87.1902 35.1401C87.9438 35.63 88.5398 36.3272 88.9067 37.1479C89.3604 38.1743 89.5781 39.2897 89.5446 40.4117C89.575 41.524 89.3611 42.6296 88.9174 43.6498C88.5581 44.4848 87.9682 45.1993 87.2161 45.709C86.4907 46.1772 85.6435 46.4208 84.7803 46.4091C84.2132 46.429 83.6499 46.3143 83.1361 46.0745C82.7441 45.877 82.3947 45.6041 82.1077 45.2714C81.8725 44.9974 81.6678 44.6988 81.4965 44.3808H81.3831V50.5584L78.6443 50.5224ZM81.3168 40.3963C81.3016 41.0658 81.4097 41.7324 81.635 42.3628C81.8139 42.879 82.1344 43.3341 82.5599 43.6755C82.9823 43.9959 83.5007 44.1629 84.0297 44.1492C84.5763 44.1667 85.1122 43.9939 85.546 43.6601C85.9693 43.3091 86.2882 42.8477 86.4656 42.3267C86.6825 41.7065 86.7883 41.0531 86.7792 40.3963C86.7906 39.7446 86.6863 39.0961 86.4709 38.4811C86.295 37.9651 85.9761 37.5099 85.5514 37.1685C85.1091 36.8648 84.5862 36.7022 84.0503 36.7022C83.5152 36.7022 82.9915 36.8648 82.55 37.1685C82.1245 37.5018 81.804 37.9502 81.6251 38.4606C81.4067 39.0822 81.3009 39.7375 81.3115 40.3963H81.3168Z" fill="#03224E"/>
<path d="M101.009 37.668L98.5275 37.9356C98.4506 37.6799 98.3265 37.4407 98.1621 37.2304C97.9733 37.0057 97.7336 36.8293 97.4633 36.7156C97.0622 36.5556 96.6298 36.4872 96.1982 36.5157C95.7674 36.5442 95.348 36.6688 94.9712 36.8803C94.7984 36.9734 94.6538 37.1116 94.5533 37.2801C94.4536 37.4488 94.4003 37.6415 94.4003 37.8378C94.3934 37.9951 94.4239 38.1518 94.4886 38.295C94.5541 38.4382 94.6522 38.5639 94.7756 38.6615C95.1531 38.923 95.5824 39.0986 96.0346 39.1763L98.003 39.5985C98.9058 39.7396 99.7522 40.128 100.449 40.7207C100.714 40.9795 100.923 41.2907 101.062 41.6346C101.201 41.9784 101.267 42.3474 101.256 42.7182C101.262 43.413 101.038 44.0902 100.618 44.6436C100.166 45.2265 99.5642 45.675 98.8769 45.9408C98.0601 46.2693 97.1863 46.4287 96.3071 46.4093C95.1044 46.4666 93.9124 46.156 92.8893 45.5187C92.4707 45.2367 92.1167 44.8687 91.8511 44.4391C91.5854 44.0095 91.4134 43.5282 91.3479 43.027L94.0045 42.7696C94.0966 43.249 94.3714 43.6736 94.7702 43.9537C95.2315 44.2408 95.7697 44.3792 96.3124 44.3501C96.8536 44.3738 97.3903 44.2358 97.8538 43.9537C98.0289 43.8534 98.1751 43.7098 98.2778 43.5368C98.3813 43.3636 98.4392 43.1669 98.4453 42.9652C98.4483 42.808 98.4164 42.652 98.3501 42.5092C98.2847 42.3664 98.1865 42.2407 98.0647 42.1416C97.7199 41.8771 97.3157 41.7004 96.8879 41.6268L94.9141 41.2098C93.9969 41.0712 93.1405 40.6647 92.4524 40.0412C92.1883 39.7624 91.9827 39.4334 91.8472 39.0734C91.7125 38.7136 91.6509 38.3302 91.6661 37.946C91.6455 37.2787 91.8503 36.6239 92.2469 36.0875C92.6754 35.5378 93.2463 35.1159 93.8971 34.8674C94.6743 34.5656 95.504 34.4187 96.3375 34.435C97.4778 34.3698 98.6074 34.6749 99.5604 35.3051C100.335 35.8714 100.855 36.7202 101.009 37.668Z" fill="#03224E"/>
<path d="M22.5712 56.2163H25.9836L30.5625 67.4028H30.7424L35.3162 56.2163H38.7337V71.6603H36.0511V61.0451H35.9072L31.652 71.6036H29.6478L25.3925 61.0451H25.2487V71.6757H22.5712V56.2163Z" fill="#03224E"/>
<path d="M46.7815 71.8557C45.7363 71.8838 44.7023 71.6333 43.7854 71.1299C42.9498 70.6514 42.2753 69.9346 41.8479 69.0707C41.4008 68.0825 41.1695 67.0102 41.1695 65.9253C41.1695 64.8404 41.4008 63.7679 41.8479 62.7799C42.2726 61.909 42.9356 61.177 43.7597 60.6692C44.6274 60.1468 45.6255 59.8825 46.6376 59.9072C47.3257 59.9045 48.009 60.0212 48.6573 60.2522C49.2901 60.4773 49.8656 60.8394 50.3429 61.3127C50.8569 61.8259 51.2517 62.4464 51.4992 63.1299C51.7991 63.9736 51.9419 64.8652 51.9206 65.7605V66.5945H42.4338V64.7567H49.2945C49.2981 64.2691 49.1816 63.7882 48.9553 63.3564C48.7411 62.9568 48.4234 62.6225 48.0354 62.3885C47.5988 62.147 47.1064 62.0246 46.6076 62.0336C46.1088 62.0427 45.6212 62.1828 45.1935 62.4401C44.7822 62.6916 44.4438 63.0466 44.2119 63.4697C43.9794 63.9089 43.8577 64.3984 43.8573 64.8956V66.5018C43.8324 67.1054 43.9541 67.706 44.2119 68.2522C44.4403 68.7117 44.7976 69.0945 45.2398 69.3538C45.7116 69.6135 46.2432 69.7448 46.7815 69.7348C47.1482 69.7398 47.5131 69.6823 47.8607 69.5649C48.171 69.4534 48.4546 69.2779 48.6932 69.0501C48.927 68.8219 49.1031 68.5414 49.2071 68.2316L51.7767 68.5147C51.6427 69.1803 51.3381 69.7995 50.8928 70.3113C50.4198 70.829 49.8318 71.2275 49.1763 71.4748C48.4086 71.7499 47.5965 71.8791 46.7815 71.8557Z" fill="#03224E"/>
<path d="M56.9313 64.8698V71.6549H54.2076V60.077H56.8131V62.0436H56.9468C57.201 61.4086 57.6464 60.8687 58.2213 60.4992C58.8739 60.098 59.6298 59.8975 60.3951 59.9226C61.1237 59.9074 61.8434 60.0849 62.4816 60.4374C63.0791 60.7832 63.5604 61.2993 63.864 61.92C64.2217 62.6551 64.3979 63.4655 64.3779 64.2829V71.6549H61.6542V64.7051C61.6944 64.0445 61.4791 63.3937 61.0529 62.8879C60.8422 62.6647 60.5855 62.4901 60.3006 62.3763C60.0157 62.2625 59.7095 62.2122 59.4032 62.2289C58.9602 62.2222 58.5229 62.3304 58.1339 62.5429C57.7645 62.7524 57.4643 63.0656 57.2705 63.4438C57.0405 63.8834 56.9239 64.3736 56.9313 64.8698Z" fill="#03224E"/>
<path d="M72.8985 60.0772V62.1879H66.2537V60.0772H72.8985ZM67.893 57.3024H70.6168V68.1699C70.5999 68.4596 70.6584 68.7487 70.7863 69.009C70.8829 69.1908 71.0416 69.3315 71.2335 69.4054C71.4305 69.4796 71.6396 69.5163 71.8502 69.5135C72.0087 69.5139 72.1669 69.5002 72.323 69.4724C72.4339 69.4567 72.5437 69.4344 72.6519 69.4054L73.1092 71.5418C72.9653 71.5882 72.7546 71.6448 72.4874 71.7066C72.1643 71.7726 71.8356 71.8071 71.5058 71.8095C70.8759 71.839 70.247 71.7337 69.6609 71.5006C69.1314 71.2825 68.68 70.9093 68.3658 70.4299C68.0295 69.8893 67.8647 69.2592 67.893 68.6229V57.3024Z" fill="#03224E"/>
<path d="M80.0982 71.856C79.0713 71.8825 78.0559 71.6261 77.1638 71.1146C76.3363 70.6171 75.6693 69.8915 75.242 69.0246C74.7916 68.0392 74.5583 66.9681 74.5583 65.8842C74.5583 64.8005 74.7916 63.7293 75.242 62.744C75.6692 61.8756 76.3363 61.1484 77.1638 60.6488C78.065 60.1603 79.0736 59.9046 80.0982 59.9046C81.1235 59.9046 82.1313 60.1603 83.0326 60.6488C83.8607 61.1484 84.5276 61.8756 84.9546 62.744C85.4052 63.7293 85.6389 64.8005 85.6389 65.8842C85.6389 66.9681 85.4052 68.0392 84.9546 69.0246C84.5276 69.8915 83.8607 70.6171 83.0326 71.1146C82.1412 71.6261 81.1258 71.8825 80.0982 71.856ZM80.0982 69.6732C80.6576 69.6918 81.2042 69.5091 81.6403 69.1584C82.0666 68.7954 82.3848 68.3216 82.5599 67.789C82.7684 67.1725 82.8712 66.5249 82.8636 65.874C82.8704 65.2197 82.7684 64.5688 82.5599 63.9486C82.3825 63.416 82.0643 62.9411 81.6403 62.5741C81.2042 62.2233 80.6576 62.0407 80.0982 62.0592C79.5402 62.0452 78.9952 62.2274 78.5567 62.5741C78.1312 62.9408 77.8115 63.4156 77.6319 63.9486C77.4233 64.5688 77.3213 65.2197 77.3282 65.874C77.3206 66.5249 77.4233 67.1725 77.6319 67.789C77.8085 68.3219 78.129 68.7957 78.5567 69.1584C78.996 69.516 79.5478 69.7058 80.1142 69.6938L80.0982 69.6732Z" fill="#03224E"/>
<path d="M87.9408 71.6552V60.0773H90.5768V62.0078H90.7001C90.8782 61.3855 91.2604 60.8414 91.7848 60.4634C92.2994 60.0975 92.9167 59.9047 93.5478 59.9126H94.0616C94.2184 59.9226 94.3744 59.9415 94.5289 59.9692V62.4814C94.3508 62.4275 94.1689 62.3896 93.9839 62.3682C93.7457 62.3379 93.5051 62.3224 93.2646 62.3218C92.7995 62.3151 92.3405 62.4247 91.9287 62.641C91.545 62.8478 91.2238 63.1535 90.9985 63.5265C90.7686 63.9232 90.6529 64.3757 90.6644 64.8341V71.6397L87.9408 71.6552Z" fill="#03224E"/>
</svg>
