<svg width="103" height="103" viewBox="0 0 103 103" fill="none" xmlns="http://www.w3.org/2000/svg">
<g clip-path="url(#clip0_155_12091)">
<path fill-rule="evenodd" clip-rule="evenodd" d="M51.5 97.7678C77.0419 97.7678 97.7483 77.1366 97.7483 51.6873C97.7483 26.238 77.0419 5.60674 51.5 5.60674C25.958 5.60674 5.25162 26.238 5.25162 51.6873C5.25162 77.1366 25.958 97.7678 51.5 97.7678ZM51.5 102.888C79.881 102.888 102.887 79.9654 102.887 51.6873C102.887 23.4092 79.881 0.486679 51.5 0.486679C23.1189 0.486679 0.112915 23.4092 0.112915 51.6873C0.112915 79.9654 23.1189 102.888 51.5 102.888Z" fill="#C7EBFD"/>
<path d="M20.6677 81.46C20.6677 78.8155 22.6513 76.5806 25.2926 76.2888C45.1151 74.1025 57.9747 74.2996 77.7536 76.3374C78.7413 76.4408 79.6774 76.8284 80.4476 77.4531C81.2178 78.0778 81.7887 78.9125 82.0906 79.8552C82.3926 80.7979 82.4124 81.8078 82.1478 82.7615C81.8831 83.7152 81.3455 84.5715 80.6005 85.2258C57.2579 105.499 43.9178 105.22 22.3121 85.2463C21.2587 84.2735 20.6677 82.8911 20.6677 81.4626V81.46Z" fill="#C7EBFD"/>
<path fill-rule="evenodd" clip-rule="evenodd" d="M77.489 78.8821C57.8669 76.8597 45.1922 76.6702 25.5727 78.8334C24.9268 78.9084 24.3315 79.2181 23.9005 79.7032C23.4696 80.1883 23.2334 80.8148 23.2371 81.4626C23.2371 82.1948 23.5429 82.8885 24.0593 83.3698C34.7684 93.2669 42.8824 97.7393 50.814 97.7674C58.7738 97.7956 67.3246 93.359 78.9124 83.2981C79.2805 82.9717 79.5456 82.5457 79.6752 82.0719C79.8049 81.5982 79.7937 81.0971 79.6429 80.6296C79.4922 80.1621 79.2083 79.7483 78.8259 79.4385C78.4436 79.1288 77.9791 78.9363 77.489 78.8846V78.8821ZM25.01 73.7441C45.0406 71.5348 58.0878 71.7345 78.0208 73.7902C79.5067 73.9447 80.9151 74.5275 82.0736 75.4673C83.2322 76.4071 84.0906 77.6631 84.5437 79.0815C84.9969 80.4998 85.0251 82.0191 84.6251 83.4532C84.225 84.8874 83.4139 86.1742 82.2911 87.1561C70.5363 97.3655 60.7471 102.926 50.7986 102.887C40.8218 102.852 31.4642 97.1965 20.5676 87.1228C19.7874 86.3988 19.1654 85.5222 18.7406 84.5479C18.3158 83.5735 18.0971 82.5223 18.0984 81.46C18.0947 79.5514 18.7978 77.7084 20.0731 76.2842C21.3484 74.8599 23.1063 73.9546 25.01 73.7415V73.7441Z" fill="#C7EBFD"/>
<path d="M72.0548 41.4467C72.0548 46.8784 69.8892 52.0877 66.0345 55.9285C62.1797 59.7693 56.9515 61.927 51.5 61.927C46.0485 61.927 40.8203 59.7693 36.9656 55.9285C33.1108 52.0877 30.9452 46.8784 30.9452 41.4467C30.9452 36.0151 33.1108 30.8058 36.9656 26.965C40.8203 23.1242 46.0485 20.9665 51.5 20.9665C56.9515 20.9665 62.1797 23.1242 66.0345 26.965C69.8892 30.8058 72.0548 36.0151 72.0548 41.4467Z" fill="#C7EBFD"/>
<path fill-rule="evenodd" clip-rule="evenodd" d="M51.5 56.8069C55.5886 56.8069 59.5098 55.1886 62.4009 52.308C65.2919 49.4274 66.9161 45.5205 66.9161 41.4467C66.9161 37.373 65.2919 33.4661 62.4009 30.5855C59.5098 27.7049 55.5886 26.0866 51.5 26.0866C47.4114 26.0866 43.4903 27.7049 40.5992 30.5855C37.7081 33.4661 36.0839 37.373 36.0839 41.4467C36.0839 45.5205 37.7081 49.4274 40.5992 52.308C43.4903 55.1886 47.4114 56.8069 51.5 56.8069ZM51.5 61.927C56.9515 61.927 62.1797 59.7693 66.0345 55.9285C69.8892 52.0877 72.0548 46.8784 72.0548 41.4467C72.0548 36.0151 69.8892 30.8058 66.0345 26.965C62.1797 23.1242 56.9515 20.9665 51.5 20.9665C46.0485 20.9665 40.8203 23.1242 36.9656 26.965C33.1108 30.8058 30.9452 36.0151 30.9452 41.4467C30.9452 46.8784 33.1108 52.0877 36.9656 55.9285C40.8203 59.7693 46.0485 61.927 51.5 61.927Z" fill="#C7EBFD"/>
</g>
<defs>
<clipPath id="clip0_155_12091">
<rect width="103" height="102.626" fill="white" transform="translate(0 0.373734)"/>
</clipPath>
</defs>
</svg>
