<svg width="177" height="177" viewBox="0 0 177 177" fill="none" xmlns="http://www.w3.org/2000/svg">
<path fill-rule="evenodd" clip-rule="evenodd" d="M88.4995 168.149C132.488 168.149 168.149 132.488 168.149 88.4995C168.149 44.5108 132.488 8.84995 88.4995 8.84995C44.5108 8.84995 8.84995 44.5108 8.84995 88.4995C8.84995 132.488 44.5108 168.149 88.4995 168.149ZM88.4995 176.999C137.378 176.999 176.999 137.378 176.999 88.4995C176.999 39.6212 137.378 0 88.4995 0C39.6212 0 0 39.6212 0 88.4995C0 137.378 39.6212 176.999 88.4995 176.999Z" fill="#E33569"/>
<path d="M35.3994 139.962C35.3994 135.391 38.8155 131.528 43.3644 131.024C77.5031 127.245 99.6501 127.586 133.714 131.108C135.415 131.287 137.027 131.957 138.353 133.037C139.68 134.116 140.663 135.559 141.183 137.188C141.703 138.818 141.737 140.563 141.281 142.212C140.825 143.86 139.9 145.341 138.616 146.472C98.4155 181.513 75.441 181.031 38.2314 146.507C36.4172 144.825 35.3994 142.436 35.3994 139.967V139.962Z" fill="#E33569"/>
<path fill-rule="evenodd" clip-rule="evenodd" d="M133.258 135.507C99.4644 132.011 77.636 131.684 43.8469 135.423C42.7346 135.552 41.7093 136.088 40.9671 136.926C40.225 137.765 39.8181 138.847 39.8246 139.967C39.8246 141.233 40.3512 142.432 41.2406 143.264C59.6839 160.371 73.6579 168.101 87.3178 168.15C101.026 168.199 115.753 160.53 135.709 143.14C136.343 142.576 136.8 141.839 137.023 141.02C137.246 140.202 137.227 139.335 136.967 138.527C136.708 137.719 136.219 137.004 135.56 136.469C134.902 135.933 134.102 135.601 133.258 135.511V135.507ZM42.8778 126.626C77.3749 122.807 99.8449 123.152 134.174 126.706C136.733 126.973 139.158 127.98 141.154 129.604C143.149 131.229 144.627 133.4 145.408 135.851C146.188 138.303 146.237 140.929 145.548 143.408C144.859 145.887 143.462 148.111 141.528 149.808C121.284 167.455 104.425 177.066 87.2913 177C70.1091 176.938 53.9934 167.163 35.227 149.751C33.8834 148.499 32.8123 146.984 32.0806 145.3C31.349 143.616 30.9725 141.799 30.9746 139.963C30.9682 136.664 32.1791 133.478 34.3755 131.016C36.5719 128.555 39.5993 126.99 42.8778 126.621V126.626Z" fill="#E33569"/>
<path d="M123.899 70.8002C123.899 80.1888 120.17 89.1929 113.531 95.8316C106.892 102.47 97.888 106.2 88.4994 106.2C79.1108 106.2 70.1067 102.47 63.468 95.8316C56.8292 89.1929 53.0996 80.1888 53.0996 70.8002C53.0996 61.4116 56.8292 52.4075 63.468 45.7688C70.1067 39.13 79.1108 35.4004 88.4994 35.4004C97.888 35.4004 106.892 39.13 113.531 45.7688C120.17 52.4075 123.899 61.4116 123.899 70.8002V70.8002Z" fill="#E33569"/>
<path fill-rule="evenodd" clip-rule="evenodd" d="M88.4994 97.35C95.5409 97.35 102.294 94.5528 107.273 89.5738C112.252 84.5947 115.049 77.8417 115.049 70.8002C115.049 63.7587 112.252 57.0057 107.273 52.0266C102.294 47.0476 95.5409 44.2503 88.4994 44.2503C81.458 44.2503 74.7049 47.0476 69.7258 52.0266C64.7468 57.0057 61.9496 63.7587 61.9496 70.8002C61.9496 77.8417 64.7468 84.5947 69.7258 89.5738C74.7049 94.5528 81.458 97.35 88.4994 97.35V97.35ZM88.4994 106.2C97.888 106.2 106.892 102.47 113.531 95.8316C120.17 89.1929 123.899 80.1888 123.899 70.8002C123.899 61.4116 120.17 52.4075 113.531 45.7688C106.892 39.13 97.888 35.4004 88.4994 35.4004C79.1108 35.4004 70.1067 39.13 63.468 45.7688C56.8292 52.4075 53.0996 61.4116 53.0996 70.8002C53.0996 80.1888 56.8292 89.1929 63.468 95.8316C70.1067 102.47 79.1108 106.2 88.4994 106.2V106.2Z" fill="#E33569"/>
</svg>
