<svg width="40" height="40" viewBox="0 0 40 40" fill="none" xmlns="http://www.w3.org/2000/svg">
<rect width="40" height="40" rx="3" fill="#3835E3"/>
<path d="M27.4573 9.01353L30.9873 12.5419L27.4573 9.01353ZM29.7273 5.9052L20.1823 15.4502C19.6891 15.9427 19.3528 16.5702 19.2157 17.2535L18.334 21.6669L22.7473 20.7835C23.4307 20.6469 24.0573 20.3119 24.5507 19.8185L34.0957 10.2735C34.3825 9.9867 34.61 9.64619 34.7652 9.27143C34.9205 8.89667 35.0004 8.495 35.0004 8.08937C35.0004 7.68373 34.9205 7.28206 34.7652 6.9073C34.61 6.53254 34.3825 6.19203 34.0957 5.9052C33.8088 5.61837 33.4683 5.39085 33.0935 5.23562C32.7188 5.08038 32.3171 5.00049 31.9115 5.00049C31.5058 5.00049 31.1042 5.08038 30.7294 5.23562C30.3547 5.39085 30.0141 5.61837 29.7273 5.9052V5.9052Z" stroke="white" stroke-width="2" stroke-linecap="round" stroke-linejoin="round"/>
<path d="M31.667 25.0002V30.0002C31.667 30.8842 31.3158 31.7321 30.6907 32.3572C30.0656 32.9823 29.2177 33.3335 28.3337 33.3335H10.0003C9.11627 33.3335 8.26842 32.9823 7.6433 32.3572C7.01818 31.7321 6.66699 30.8842 6.66699 30.0002V11.6668C6.66699 10.7828 7.01818 9.93493 7.6433 9.30981C8.26842 8.68469 9.11627 8.3335 10.0003 8.3335H15.0003" stroke="white" stroke-width="2" stroke-linecap="round" stroke-linejoin="round"/>
</svg>
