<svg width="40" height="40" viewBox="0 0 40 40" fill="none" xmlns="http://www.w3.org/2000/svg">
<rect width="40" height="40" rx="3" fill="#E33569"/>
<path d="M27.4568 9.01333L30.9868 12.5417L27.4568 9.01333ZM29.7268 5.905L20.1818 15.45C19.6886 15.9425 19.3523 16.57 19.2151 17.2533L18.3335 21.6667L22.7468 20.7833C23.4301 20.6467 24.0568 20.3117 24.5501 19.8183L34.0951 10.2733C34.382 9.98651 34.6095 9.64599 34.7647 9.27123C34.92 8.89647 34.9999 8.49481 34.9999 8.08917C34.9999 7.68353 34.92 7.28187 34.7647 6.90711C34.6095 6.53235 34.382 6.19183 34.0951 5.905C33.8083 5.61817 33.4678 5.39065 33.093 5.23542C32.7183 5.08019 32.3166 5.00029 31.911 5.00029C31.5053 5.00029 31.1037 5.08019 30.7289 5.23542C30.3542 5.39065 30.0136 5.61817 29.7268 5.905V5.905Z" stroke="white" stroke-width="2" stroke-linecap="round" stroke-linejoin="round"/>
<path d="M31.6668 25V30C31.6668 30.8841 31.3156 31.7319 30.6905 32.357C30.0654 32.9821 29.2175 33.3333 28.3335 33.3333H10.0001C9.11609 33.3333 8.26824 32.9821 7.64312 32.357C7.018 31.7319 6.66681 30.8841 6.66681 30V11.6667C6.66681 10.7826 7.018 9.93477 7.64312 9.30965C8.26824 8.68453 9.11609 8.33334 10.0001 8.33334H15.0001" stroke="white" stroke-width="2" stroke-linecap="round" stroke-linejoin="round"/>
</svg>
