<svg width="161" height="152" viewBox="0 0 161 152" fill="none" xmlns="http://www.w3.org/2000/svg">
<mask id="mask0_29_1293" style="mask-type:alpha" maskUnits="userSpaceOnUse" x="0" y="0" width="162" height="156">
<path d="M95.8224 147.748L95.8502 147.686L95.8747 147.624L114.28 100.353L127.856 65.4864V147.285C127.856 148.125 127.907 148.922 128.046 149.621C128.162 150.202 128.402 151.059 129.026 151.758C129.714 152.59 130.661 152.946 131.353 153.12C132.135 153.316 133.023 153.385 133.943 153.385H152.443C153.312 153.385 154.166 153.315 154.93 153.11C155.584 152.935 156.409 152.598 157.051 151.897C157.75 151.252 158.084 150.426 158.257 149.774C158.461 149.01 158.53 148.155 158.53 147.285V10.6838C158.53 9.28424 158.449 8.04163 158.246 7.02177C158.083 6.20367 157.751 5.01921 156.86 4.17971C156.023 3.28444 154.839 2.94999 154.021 2.78572C153.002 2.58127 151.762 2.5 150.367 2.5H129.79C128.248 2.5 126.754 2.82698 125.466 3.65438C124.167 4.48856 123.279 5.70276 122.741 7.12408L80.7132 111.408L38.8569 7.10578C38.8564 7.10455 38.8559 7.10333 38.8554 7.10211C38.2995 5.70822 37.4775 4.24103 36.1252 3.42671C34.95 2.71904 33.5534 2.5 32.1927 2.5H11.0497C9.70783 2.5 8.50289 2.58242 7.4901 2.78572C6.5556 2.97329 5.40502 3.33399 4.55934 4.18273L4.55934 4.18274C4.07292 4.67092 3.80625 5.24319 3.64947 5.67589C3.48338 6.13429 3.37306 6.62806 3.29515 7.11676C3.13949 8.09313 3.0752 9.29954 3.0752 10.6838V147.285C3.0752 148.125 3.12582 148.922 3.26499 149.621C3.38092 150.202 3.62069 151.059 4.24515 151.758C4.93287 152.59 5.8795 152.946 6.5714 153.12C7.35367 153.316 8.24194 153.385 9.16195 153.385H27.6621C28.5821 153.385 29.4703 153.316 30.2526 153.12C30.9445 152.946 31.8912 152.59 32.5789 151.758C33.2033 151.059 33.4431 150.202 33.559 149.621C33.6982 148.922 33.7488 148.125 33.7488 147.285V65.4864L65.7201 147.597C65.9978 148.36 66.3016 149.059 66.6428 149.659C66.9719 150.237 67.4261 150.884 68.067 151.366L68.1701 151.444L68.2808 151.511C69.5125 152.252 71.0907 152.437 72.5909 152.437H89.0144C89.8067 152.437 90.5653 152.384 91.2526 152.246C91.9158 152.113 92.6829 151.868 93.3495 151.366C93.9451 150.918 94.4023 150.318 94.7535 149.77C95.1235 149.192 95.4782 148.508 95.8224 147.748Z" fill="black" stroke="black" stroke-width="5"/>
</mask>
<g mask="url(#mask0_29_1293)">
<rect x="-0.403809" y="-2" width="160.419" height="154" fill="#3835E3" fill-opacity="0.25"/>
</g>
</svg>
