<svg width="217" height="217" viewBox="0 0 217 217" fill="none" xmlns="http://www.w3.org/2000/svg">
<path fill-rule="evenodd" clip-rule="evenodd" d="M108.5 205.936C162.312 205.936 205.936 162.312 205.936 108.5C205.936 54.6882 162.312 11.064 108.5 11.064C54.6887 11.064 11.0645 54.6882 11.0645 108.5C11.0645 162.312 54.6887 205.936 108.5 205.936ZM108.5 216.762C168.293 216.762 216.762 168.293 216.762 108.5C216.762 48.7067 168.293 0.237793 108.5 0.237793C48.7072 0.237793 0.238281 48.7067 0.238281 108.5C0.238281 168.293 48.7072 216.762 108.5 216.762Z" fill="#C7EBFD"/>
<path d="M43.543 171.454C43.543 165.863 47.7219 161.137 53.2866 160.52C95.0486 155.897 122.141 156.314 163.811 160.623C165.892 160.841 167.864 161.661 169.487 162.982C171.11 164.303 172.312 166.068 172.948 168.061C173.585 170.054 173.626 172.19 173.069 174.206C172.511 176.223 171.379 178.034 169.809 179.417C120.631 222.284 92.5261 221.693 47.0074 179.46C44.788 177.403 43.543 174.48 43.543 171.46V171.454Z" fill="#C7EBFD"/>
<path fill-rule="evenodd" clip-rule="evenodd" d="M163.254 166.003C121.914 161.727 95.2111 161.326 53.8766 165.9C52.516 166.059 51.2617 166.714 50.3538 167.74C49.4459 168.765 48.9482 170.09 48.9561 171.46C48.9561 173.008 49.6003 174.475 50.6883 175.492C73.2501 196.419 90.3447 205.876 107.055 205.936C123.825 205.995 141.84 196.614 166.253 175.341C167.028 174.651 167.587 173.75 167.86 172.748C168.133 171.746 168.109 170.687 167.792 169.698C167.474 168.71 166.876 167.835 166.07 167.18C165.265 166.525 164.286 166.118 163.254 166.009V166.003ZM52.6912 155.139C94.8917 150.468 122.379 150.89 164.374 155.237C167.505 155.563 170.472 156.796 172.913 158.783C175.354 160.77 177.162 163.426 178.117 166.425C179.071 169.424 179.131 172.636 178.288 175.669C177.445 178.701 175.736 181.422 173.371 183.498C148.606 205.086 127.982 216.843 107.022 216.762C86.0034 216.686 66.2889 204.729 43.3319 183.428C41.6882 181.897 40.3779 180.044 39.4829 177.983C38.5878 175.923 38.1272 173.7 38.1299 171.454C38.122 167.418 39.6034 163.521 42.2902 160.51C44.9771 157.499 48.6805 155.584 52.6912 155.134V155.139Z" fill="#C7EBFD"/>
<path d="M151.805 86.8473C151.805 98.3325 147.243 109.347 139.121 117.468C131 125.59 119.985 130.152 108.5 130.152C97.015 130.152 86.0002 125.59 77.879 117.468C69.7578 109.347 65.1953 98.3325 65.1953 86.8473C65.1953 75.3622 69.7578 64.3474 77.879 56.2262C86.0002 48.1049 97.015 43.5425 108.5 43.5425C119.985 43.5425 131 48.1049 139.121 56.2262C147.243 64.3474 151.805 75.3622 151.805 86.8473Z" fill="#C7EBFD"/>
<path fill-rule="evenodd" clip-rule="evenodd" d="M108.5 119.326C117.114 119.326 125.375 115.904 131.466 109.813C137.557 103.722 140.979 95.4612 140.979 86.8473C140.979 78.2334 137.557 69.9724 131.466 63.8815C125.375 57.7905 117.114 54.3687 108.5 54.3687C99.8863 54.3687 91.6252 57.7905 85.5343 63.8815C79.4434 69.9724 76.0215 78.2334 76.0215 86.8473C76.0215 95.4612 79.4434 103.722 85.5343 109.813C91.6252 115.904 99.8863 119.326 108.5 119.326ZM108.5 130.152C119.985 130.152 131 125.59 139.121 117.468C147.243 109.347 151.805 98.3325 151.805 86.8473C151.805 75.3622 147.243 64.3474 139.121 56.2262C131 48.1049 119.985 43.5425 108.5 43.5425C97.015 43.5425 86.0002 48.1049 77.879 56.2262C69.7578 64.3474 65.1953 75.3622 65.1953 86.8473C65.1953 98.3325 69.7578 109.347 77.879 117.468C86.0002 125.59 97.015 130.152 108.5 130.152Z" fill="#C7EBFD"/>
</svg>
