<svg width="16" height="16" viewBox="0 0 16 16" fill="none" xmlns="http://www.w3.org/2000/svg">
<path d="M14.25 9.04183H9.04166V14.2502C9.04166 14.8231 8.57291 15.2918 7.99999 15.2918C7.42708 15.2918 6.95833 14.8231 6.95833 14.2502V9.04183H1.74999C1.17708 9.04183 0.708328 8.57308 0.708328 8.00016C0.708328 7.42725 1.17708 6.9585 1.74999 6.9585H6.95833V1.75016C6.95833 1.17725 7.42708 0.708496 7.99999 0.708496C8.57291 0.708496 9.04166 1.17725 9.04166 1.75016V6.9585H14.25C14.8229 6.9585 15.2917 7.42725 15.2917 8.00016C15.2917 8.57308 14.8229 9.04183 14.25 9.04183Z" fill="#3835E3"/>
</svg>
